<svg width="989" height="908" viewBox="0 0 989 908" fill="none" xmlns="http://www.w3.org/2000/svg">
<path d="M682.77 108.34C663.83 75.54 636.36 48.12 603.35 29.06C569.23 9.36 531.92 0 495.1 0C419.96 0 346.8 38.96 306.61 108.57C277.6 158.82 269.89 217.36 284.91 273.41C299.93 329.46 335.87 376.3 386.12 405.31C419.14 424.37 456.61 434.45 494.49 434.45H494.51C572 434.45 644.17 392.82 682.86 325.8C721.56 258.77 721.53 175.44 682.77 108.33V108.34Z" fill="#333333"/>
<path d="M406.37 581.07C387.43 548.27 359.96 520.85 326.95 501.79C292.83 482.09 255.53 472.73 218.7 472.73C143.56 472.73 70.4 511.69 30.21 581.3C1.17997 631.55 -6.52003 690.09 8.48997 746.14C23.51 802.19 59.45 849.03 109.7 878.04C142.72 897.1 180.19 907.18 218.07 907.18H218.09C295.58 907.18 367.75 865.55 406.44 798.53C445.14 731.5 445.11 648.17 406.35 581.06L406.37 581.07Z" fill="#333333"/>
<path d="M959.18 581.07C940.24 548.27 912.77 520.85 879.76 501.79C845.64 482.09 808.34 472.73 771.51 472.73C696.37 472.73 623.21 511.69 583.02 581.3C554.01 631.55 546.3 690.09 561.32 746.14C576.34 802.19 612.28 849.03 662.53 878.04C695.55 897.1 733.02 907.18 770.9 907.18H770.92C848.41 907.18 920.58 865.55 959.27 798.53C997.97 731.5 997.94 648.17 959.18 581.06V581.07Z" fill="#333333"/>
</svg>
