<?xml version="1.0" encoding="UTF-8"?>
<svg width="332px" height="323px" viewBox="0 0 332 323" version="1.1" xmlns="http://www.w3.org/2000/svg" xmlns:xlink="http://www.w3.org/1999/xlink">
    <!-- Generator: Sketch 3.8.3 (29802) - http://www.bohemiancoding.com/sketch -->
    <title>logo</title>
    <desc>Created with Sketch.</desc>
    <defs>
        <linearGradient x1="50.2251327%" y1="11.506018%" x2="49.6049258%" y2="86.2967239%" id="linearGradient-1">
            <stop stop-color="#191919" offset="16%"></stop>
            <stop stop-color="#191919" stop-opacity="0" offset="97%"></stop>
        </linearGradient>
    </defs>
    <g id="Page-1" stroke="none" stroke-width="1" fill="none" fill-rule="evenodd">
        <g id="logo">
            <g id="Group">
                <g id="Group-2">
                    <path d="M303.71,249.92 C303.5,250.08 303.29,250.25 303.07,250.4 C302.86,250.56 302.64,250.71 302.42,250.87 C302.01,251.16 301.59,251.44 301.16,251.71 C301.11,251.74 301.06,251.77 301.01,251.81 C300.66,252.03 300.31,252.25 299.95,252.46 C299.42,252.78 298.9,253.08 298.36,253.38 C294.7,255.42 290.85,257.06 286.92,258.51 C283.21,259.87 279.45,261.06 275.66,262.12 C270.23,263.64 264.73,264.9 259.18,266 C253.79,267.08 248.38,267.99 242.95,268.78 C237.52,269.57 232.07,270.23 226.61,270.8 C224.82,270.99 223.03,271.16 221.24,271.33 C217.65,271.66 214.06,271.94 210.47,272.18 C208.67,272.3 206.87,272.41 205.08,272.51 C201.05,272.74 197.02,272.91 192.99,273.04 C192.26,273.06 191.53,273.09 190.79,273.11 C190.12,273.13 189.45,273.15 188.77,273.17 C190.42,271.13 192.07,269.1 193.58,266.95 C193.8,266.68 194.02,266.41 194.23,266.13 C197.64,261.55 200.9,256.87 204.02,252.1 C204.34,252.08 204.66,252.07 204.97,252.05 C206.95,251.94 208.93,251.81 210.91,251.68 C212.41,251.58 213.91,251.47 215.41,251.35 C225.9,250.54 236.35,249.38 246.75,247.75 C249.78,247.28 252.79,246.76 255.79,246.21 C262.81,244.91 269.77,243.35 276.63,241.39 C278.14,240.96 279.64,240.51 281.14,240.04 C281.89,239.8 282.64,239.56 283.39,239.31 C284.52,239.51 285.55,239.98 286.61,240.37 C287.54,240.71 288.47,241.07 289.4,241.44 C292.03,242.48 294.61,243.63 297.11,244.96 C298.1,245.48 299.07,246.03 300.03,246.61 C301.3,247.38 302.54,248.19 303.7,249.12 C304.04,249.39 304.14,249.5 304.01,249.66 C303.95,249.74 303.85,249.82 303.69,249.94 L303.71,249.92 Z" id="Shape" fill="#F1ECE2"></path>
                    <path id="Shape" fill="#3180F4"></path>
                    <path d="M283.42,239.3 C282.67,239.55 281.93,239.79 281.17,240.03 C279.67,240.5 278.17,240.95 276.66,241.38 C269.79,243.34 262.84,244.9 255.82,246.2 C252.82,246.76 249.8,247.27 246.78,247.74 C236.38,249.37 225.93,250.53 215.44,251.34 C213.94,251.46 212.44,251.57 210.94,251.67 C208.96,251.8 206.98,251.93 205,252.04 C204.68,252.06 204.37,252.07 204.05,252.09 C206.2,248.8 208.29,245.47 210.31,242.09 C213.23,237.21 216.02,232.26 218.67,227.24 C223.73,227.68 228.78,228.19 233.83,228.81 C234.2,228.85 234.57,228.93 234.95,228.99 C237.21,229.15 239.45,229.49 241.68,229.82 C244.55,230.24 247.42,230.7 250.28,231.18 C254.14,231.83 258,232.55 261.83,233.38 C263.9,233.83 265.96,234.29 268.03,234.74 C268.36,234.92 268.71,234.99 269.08,235.03 C273.5,236.16 277.91,237.35 282.24,238.78 C282.64,238.91 283.1,238.95 283.41,239.29 L283.42,239.3 Z" id="Shape" fill="#FDBF41"></path>
                    <path id="Shape" fill="#F1ECE2"></path>
                    <path id="Shape" fill="#404A5A"></path>
                    <path id="Shape" fill="#404A5A"></path>
                    <path d="M78.59,311.4 L78.58,311.39 L78.59,311.4 Z" id="Shape" fill="#404A5A"></path>
                    <path id="Shape" fill="#404A5A"></path>
                    <path d="M78.23,311.22 L78.24,311.22 L78.23,311.22 Z" id="Shape" fill="#404A5A"></path>
                    <path id="Shape" fill="#404A5A"></path>
                    <path d="M76.87,310.34 C76.97,310.41 77.09,310.46 77.2,310.51 C77.28,310.55 77.36,310.58 77.44,310.62 C77.58,310.69 77.71,310.78 77.8,310.91 C77.83,310.95 77.86,311.01 77.89,311.07 C77.42,311.03 77.01,310.84 76.65,310.54 L76.87,310.34 Z" id="Shape" fill="#404A5A"></path>
                    <path d="M108.94,295.28 C108.55,295.34 108.16,295.4 107.78,295.46 C106.28,295.66 104.78,295.78 103.27,295.82 C102.77,295.83 102.26,295.84 101.76,295.83 C101.25,295.83 100.75,295.81 100.24,295.79 C100.02,295.78 99.81,295.75 99.59,295.73 C99.38,295.71 99.16,295.68 98.94,295.66 C98.66,295.64 98.45,295.52 98.24,295.34 C97.64,294.8 97.07,294.24 96.51,293.66 C100.65,294.26 104.79,294.8 108.94,295.29 L108.94,295.28 Z" id="Shape" fill="#F1ECE2"></path>
                    <path d="M174.08,225.37 C171.1,225.37 168.12,225.41 165.14,225.46 C160.18,233.15 154.83,240.57 148.99,247.62 C147.76,249.1 146.52,250.56 145.25,252 C142.05,255.65 138.71,259.17 135.21,262.53 C132.14,265.47 128.97,268.28 125.66,270.92 C123.08,272.99 120.41,274.96 117.64,276.79 C112.54,280.17 107.19,283.08 101.43,285.2 C98.51,286.27 95.53,287.14 92.45,287.65 C92.28,287.68 92.12,287.75 91.95,287.8 C91.96,287.85 91.98,287.91 91.99,287.96 C92,287.99 92.01,288.02 92.03,288.05 C92.25,288.39 92.47,288.72 92.7,289.04 C93.16,289.7 93.64,290.34 94.13,290.96 C94.87,291.89 95.66,292.79 96.49,293.65 C100.63,294.25 104.77,294.79 108.92,295.28 C110.03,295.11 111.13,294.89 112.22,294.63 C114.75,294.03 117.21,293.24 119.62,292.31 C120.82,291.84 122.01,291.34 123.18,290.8 C124.35,290.26 125.51,289.69 126.66,289.08 C127.16,288.82 127.65,288.55 128.15,288.28 C131.59,286.39 134.89,284.27 138.05,281.99 C141.22,279.7 144.26,277.24 147.21,274.66 C147.63,274.29 148.05,273.92 148.47,273.54 C148.78,273.26 149.08,272.98 149.4,272.69 C151.29,270.96 153.15,269.18 154.96,267.36 C155.66,266.65 156.35,265.94 157.04,265.21 C159.31,262.83 161.52,260.4 163.67,257.91 C164.96,256.42 166.22,254.9 167.46,253.37 C167.61,253.19 167.76,253 167.91,252.81 C168.76,251.75 169.6,250.68 170.44,249.6 C173.07,246.2 175.6,242.73 178.04,239.19 C179.36,237.27 180.65,235.34 181.92,233.39 C182.63,232.29 183.33,231.19 184.02,230.09 C184.97,228.58 185.9,227.05 186.82,225.52 C182.57,225.42 178.33,225.37 174.08,225.37 L174.08,225.37 Z" id="Shape" fill="#F1ECE2"></path>
                    <path id="Shape" fill="#C18B00"></path>
                    <path d="M148.82,225.98 C146.69,226.08 144.56,226.2 142.44,226.33 C140.11,229.63 137.7,232.88 135.18,236.05 C132.71,239.17 130.18,242.23 127.52,245.2 C126.01,246.88 124.49,248.55 122.93,250.19 C121.83,251.35 120.71,252.5 119.56,253.62 C114.99,258.09 110.2,262.31 105.05,266.12 C104.19,266.75 103.33,267.37 102.45,267.98 C99.56,269.99 96.57,271.85 93.46,273.52 C91.21,274.74 88.89,275.82 86.54,276.81 C86.56,276.92 86.54,277.04 86.59,277.15 C86.92,278.06 87.27,278.95 87.65,279.84 C88.02,280.73 88.42,281.6 88.84,282.46 C89.68,284.18 90.62,285.86 91.64,287.5 L91.66,287.52 C91.73,287.62 91.85,287.71 91.94,287.8 C92.11,287.75 92.27,287.68 92.44,287.65 C95.51,287.14 98.49,286.27 101.42,285.2 C107.18,283.09 112.53,280.17 117.63,276.79 C120.4,274.96 123.07,272.99 125.65,270.92 C128.96,268.27 132.13,265.46 135.2,262.53 C138.71,259.17 142.04,255.65 145.24,252 C146.51,250.56 147.75,249.1 148.98,247.62 C154.82,240.57 160.17,233.15 165.13,225.46 C159.69,225.56 154.24,225.72 148.81,225.99 L148.82,225.98 Z" id="Shape" fill="#FDBF41"></path>
                    <path id="Shape" fill="#E7AA24"></path>
                    <path id="Shape" fill="#E7AA24"></path>
                    <path d="M100.63,247.2 C100.85,247.24 101.06,247.27 101.27,247.31 C97.1,251.34 92.72,255.12 88.05,258.58 C86.35,259.84 84.65,261.1 82.81,262.17 C82.47,260.7 82.32,259.2 82.15,257.7 C81.57,252.92 81.35,248.12 81.34,243.32 C82.5,243.6 83.66,243.87 84.83,244.14 C88.24,244.92 91.66,245.61 95.09,246.24 C96.94,246.58 98.79,246.9 100.64,247.21 L100.63,247.2 Z" id="Shape" fill="#F1ECE2"></path>
                    <path d="M119.73,228.28 C119.24,228.34 118.74,228.38 118.24,228.43 C113.32,234.69 108.07,240.66 102.37,246.25 C102.01,246.61 101.64,246.96 101.28,247.31 C101.45,247.34 101.62,247.37 101.78,247.4 C101.61,247.37 101.45,247.34 101.28,247.32 C97.11,251.35 92.73,255.13 88.06,258.59 C86.36,259.85 84.66,261.11 82.82,262.18 C82.84,262.38 82.85,262.59 82.87,262.79 C82.87,262.85 82.87,262.9 82.89,262.96 C82.93,263.19 82.98,263.42 83.02,263.65 C83.05,263.84 83.08,264.02 83.12,264.21 C83.21,264.67 83.3,265.14 83.39,265.61 C83.92,268.25 84.55,270.86 85.34,273.43 C85.7,274.58 85.99,275.76 86.57,276.84 C88.92,275.85 91.24,274.77 93.49,273.55 C96.6,271.87 99.59,270.01 102.48,268.01 C103.36,267.41 104.22,266.79 105.08,266.15 C110.23,262.35 115.02,258.12 119.59,253.65 C120.74,252.53 121.85,251.38 122.96,250.22 C124.52,248.58 126.04,246.91 127.55,245.23 C130.2,242.26 132.74,239.2 135.21,236.08 C137.72,232.9 140.14,229.66 142.47,226.36 C134.89,226.82 127.32,227.46 119.76,228.3 L119.73,228.28 Z" id="Shape" fill="#FF1100"></path>
                    <path id="Shape" fill="#F1ECE2"></path>
                    <path id="Shape" fill="#FF1100"></path>
                    <path d="M95.08,246.23 C96.93,246.57 98.78,246.89 100.63,247.2 C98.78,246.89 96.92,246.57 95.08,246.23 L95.08,246.23 Z" id="Shape" fill="#FF1100"></path>
                    <path d="M114.99,228.89 C116.06,228.66 117.15,228.54 118.24,228.43 C113.32,234.69 108.07,240.66 102.37,246.25 C102.01,246.61 101.64,246.96 101.28,247.31 L100.64,247.21 C98.79,246.9 96.94,246.58 95.09,246.24 C91.66,245.61 88.23,244.92 84.83,244.14 C83.67,243.87 82.5,243.6 81.34,243.32 C81.34,241.51 81.36,239.69 81.41,237.87 C81.44,236.79 81.49,235.72 81.55,234.65 C85.5,233.71 89.48,232.88 93.47,232.12 C100.29,230.83 107.15,229.78 114.03,228.93 C114.14,228.92 114.25,228.9 114.36,228.89 C114.49,228.87 114.62,228.86 114.75,228.87 C114.83,228.87 114.91,228.89 114.99,228.91 L114.99,228.89 Z" id="Shape" fill="#FDBF41"></path>
                    <path d="M236.64,141.49 C240.62,141.98 244.61,142.46 248.59,142.95 C248.57,142.99 248.54,143.03 248.5,143.07 C246.03,142.77 243.55,142.48 241.08,142.16 C240.36,142.07 239.64,142.01 238.92,141.93 C238.2,141.85 237.48,141.77 236.77,141.63 C236.73,141.58 236.69,141.54 236.64,141.5 L236.64,141.49 Z" id="Shape" fill="#007FFF"></path>
                    <path id="Shape" fill="#F1ECE2"></path>
                    <path d="M331.54,233.85 L331.54,217.42 C331.19,215.89 330.71,214.4 329.86,213.06 C328.49,210.9 326.86,208.97 324.82,207.39 C322.69,205.74 320.51,204.19 318.16,202.87 C314.93,201.06 311.57,199.53 308.2,198.02 C307.6,197.75 306.98,197.62 306.38,197.38 C298.76,194.4 290.92,192.16 282.98,190.23 C277.9,188.99 272.78,187.93 267.64,186.97 C261.87,185.89 256.07,184.96 250.26,184.16 C246.25,183.61 242.24,183.11 238.22,182.66 C236.43,182.46 234.64,182.27 232.85,182.09 C227.79,181.6 222.72,181.14 217.65,180.78 C214.66,180.56 211.66,180.37 208.67,180.2 C206.13,180.06 203.58,179.93 201.03,179.81 C197.02,179.63 193.02,179.49 189.01,179.4 C188.72,179.4 188.43,179.38 188.14,179.38 C181.81,179.24 175.47,179.2 169.14,179.26 L168.83,179.26 C162.31,179.32 155.79,179.47 149.28,179.74 C148.89,179.75 148.5,179.78 148.11,179.79 C140.4,180.12 132.71,180.6 125.02,181.25 C113.73,182.2 102.48,183.49 91.29,185.25 C91.02,185.29 90.76,185.34 90.49,185.38 C90.06,186.9 89.67,188.44 89.13,189.93 C88.75,191.45 88.37,192.97 87.98,194.48 C86.95,198.51 86.02,202.56 85.21,206.64 C85.78,206.54 86.35,206.45 86.92,206.35 C87.67,206.22 88.42,206.1 89.16,205.97 L92.49,205.43 C96.5,204.81 100.53,204.25 104.55,203.74 C108.58,203.23 112.61,202.78 116.65,202.38 C119.34,202.11 122.04,201.86 124.74,201.63 C128.82,201.29 132.91,201 137,200.74 C140.85,200.5 144.7,200.31 148.55,200.15 C149.54,200.11 150.53,200.06 151.52,200.02 C152.99,199.96 154.47,199.92 155.94,199.87 C156.89,199.84 157.84,199.82 158.8,199.8 C162.27,199.71 165.74,199.66 169.21,199.63 C170.52,199.63 171.82,199.61 173.13,199.61 C175.37,199.61 177.61,199.61 179.84,199.63 C180.65,199.63 181.46,199.64 182.27,199.66 L184.88,199.69 C187.25,199.73 189.61,199.79 191.98,199.86 C194.35,199.93 196.71,200.02 199.08,200.11 C199.47,200.12 199.86,200.15 200.25,200.16 C202.79,200.27 205.33,200.4 207.86,200.53 C209.81,200.64 211.76,200.76 213.71,200.88 C216.63,201.07 219.56,201.28 222.48,201.52 C225.17,201.74 227.86,201.99 230.56,202.26 C230.65,202.26 230.75,202.28 230.84,202.29 C232.77,202.48 234.7,202.67 236.63,202.87 C239.72,203.18 242.81,203.55 245.9,203.96 C248.98,204.37 252.06,204.81 255.14,205.27 C256.42,205.46 257.7,205.66 258.97,205.86 C262.8,206.48 266.62,207.16 270.42,207.91 C272.66,208.35 274.89,208.81 277.12,209.29 C279.35,209.77 281.57,210.29 283.79,210.83 C287.16,211.66 290.51,212.55 293.82,213.52 C298.24,214.82 302.62,216.28 306.91,217.99 C307.99,218.41 309.05,218.86 310.12,219.31 C311.74,220.01 313.33,220.78 314.91,221.56 C315.3,221.75 315.69,221.94 316.08,222.14 C316.38,222.29 316.69,222.44 316.99,222.59 C317.39,222.79 317.79,222.99 318.18,223.21 C318.68,223.48 319.17,223.77 319.63,224.09 C321.41,225.32 323.24,226.48 324.89,227.88 C325.27,228.21 325.64,228.54 326,228.89 C326.43,229.25 326.84,229.64 327.23,230.03 C327.88,230.68 328.48,231.38 329.01,232.11 C329.27,232.47 329.51,232.84 329.74,233.22 C329.94,233.55 330.12,233.88 330.29,234.22 C330.46,234.56 330.62,234.91 330.76,235.28 C330.91,235.64 331.04,236.01 331.16,236.38 C331.24,236.64 331.33,236.91 331.41,237.17 C331.49,237.43 331.41,237.19 331.42,237.2 L331.42,237.17 L331.42,237.17 C331.63,236.06 331.5,234.94 331.51,233.82 L331.54,233.85 Z" id="Shape" fill="#F1ECE2"></path>
                    <path d="M331.6,215.26 C331.61,211.11 331.61,206.97 331.6,202.82 C331.6,200.91 331.58,198.99 331.57,197.08 C331.24,196 331.01,194.89 330.52,193.86 C329.27,191.27 327.4,189.19 325.24,187.33 C322.88,185.29 320.27,183.6 317.53,182.11 C313.56,179.93 309.44,178.07 305.19,176.5 C300.27,174.68 295.28,173.07 290.22,171.69 C286.35,170.64 282.46,169.67 278.56,168.78 C274.11,167.77 269.64,166.88 265.15,166.09 C260.49,165.28 255.81,164.5 251.12,163.85 C248.9,163.54 246.67,163.25 244.44,162.97 C239.46,162.33 234.47,161.77 229.47,161.33 C228.54,161.24 227.62,161.11 226.69,161.04 C222.91,160.75 219.13,160.47 215.36,160.2 C214.82,160.16 214.28,160.12 213.74,160.08 C211.22,159.9 208.7,159.72 206.18,159.59 C202.9,159.43 199.62,159.31 196.34,159.19 L196.25,159.19 C192.82,159.07 189.4,158.94 185.97,158.88 C182.95,158.83 179.93,158.8 176.9,158.79 C175.57,158.79 174.24,158.78 172.9,158.78 C167.6,158.78 162.31,158.86 157.02,159.01 L156.79,159.01 C150.58,159.19 144.36,159.44 138.16,159.84 C133.39,160.14 128.62,160.41 123.86,160.81 C121.93,160.97 120.01,161.21 118.09,161.4 C111.38,162.07 104.69,162.85 98.02,163.79 C97.94,163.8 97.87,163.81 97.79,163.82 C95.12,170.73 92.72,177.73 90.61,184.84 C90.56,185.02 90.51,185.19 90.46,185.37 C90.72,185.33 90.99,185.28 91.26,185.24 C102.45,183.48 113.7,182.18 124.99,181.24 C132.68,180.6 140.37,180.11 148.08,179.78 C148.47,179.76 148.86,179.74 149.25,179.73 C155.76,179.46 162.28,179.31 168.8,179.25 L169.11,179.25 C175.45,179.2 181.78,179.24 188.11,179.37 C188.4,179.37 188.69,179.39 188.98,179.39 C192.99,179.48 196.99,179.62 201,179.8 C203.55,179.92 206.09,180.05 208.64,180.19 C211.63,180.36 214.63,180.55 217.62,180.77 C222.69,181.14 227.76,181.59 232.82,182.08 C234.61,182.26 236.4,182.45 238.19,182.65 C242.21,183.1 246.22,183.6 250.23,184.15 C256.04,184.95 261.84,185.88 267.61,186.96 C272.75,187.92 277.87,188.98 282.95,190.22 C290.89,192.15 298.73,194.39 306.35,197.37 C306.95,197.61 307.57,197.74 308.17,198.01 C311.54,199.53 314.9,201.05 318.13,202.86 C320.48,204.18 322.66,205.73 324.79,207.38 C326.83,208.96 328.46,210.89 329.83,213.05 C330.68,214.39 331.15,215.88 331.51,217.41 C331.65,216.69 331.57,215.96 331.57,215.24 L331.6,215.26 Z" id="Shape" fill="#FDBF41"></path>
                    <path d="M214.04,58.48 C216.8,62.79 218.8,67.45 220.31,72.33 C220.78,73.84 221.2,75.36 221.58,76.89 C222.21,79.44 222.7,82.03 223.09,84.63 C223.2,85.39 223.31,86.15 223.41,86.92 C223.6,88.45 223.77,89.98 223.91,91.51 C223.97,92.28 224.03,93.04 224.09,93.81 C224.37,97.99 224.49,102.17 224.38,106.36 C224.26,110.74 224,115.12 223.56,119.49 C223.12,123.83 222.52,128.15 221.8,132.44 C221.37,135.02 220.89,137.59 220.37,140.14 C216.23,139.81 212.09,139.53 207.94,139.33 C205.95,139.24 203.95,139.13 201.95,139.03 C203.3,133.23 204.44,127.39 205.33,121.49 C206.31,114.96 207.01,108.41 207.27,101.82 C207.48,96.22 207.45,90.61 207,85.01 C206.62,80.34 205.99,75.72 204.99,71.14 C203.86,65.99 202.27,60.99 199.99,56.22 C199.09,54.33 198.03,52.52 196.97,50.72 C197.84,50.44 198.75,50.41 199.64,50.32 C200.11,50.27 200.58,50.23 201.04,50.2 C201.44,50.18 201.84,50.16 202.24,50.15 C202.89,50.14 203.54,50.14 204.19,50.15 C204.64,50.16 205.1,50.18 205.55,50.2 C205.9,50.22 206.25,50.24 206.6,50.27 C206.66,50.27 206.72,50.28 206.77,50.29 C206.88,50.31 206.98,50.34 207.08,50.38 C207.18,50.42 207.27,50.47 207.36,50.53 C207.49,50.61 207.62,50.72 207.74,50.83 C208.05,51.11 208.35,51.4 208.64,51.69 C209.23,52.27 209.8,52.88 210.34,53.5 C211.71,55.05 212.94,56.7 214.07,58.46 L214.04,58.48 Z" id="Shape" fill="#F1ECE2"></path>
                    <path d="M204.96,71.14 C205.96,75.71 206.59,80.34 206.97,85.01 C207.43,90.61 207.46,96.22 207.24,101.82 C206.99,108.41 206.29,114.96 205.3,121.49 C204.41,127.39 203.27,133.24 201.92,139.03 C200.41,138.96 198.89,138.88 197.38,138.82 C193.92,138.69 190.47,138.61 187.01,138.54 C185.72,138.51 184.43,138.49 183.15,138.47 C184.41,133.72 185.52,128.93 186.47,124.11 C187.19,120.5 187.81,116.87 188.36,113.23 C188.72,110.79 189.04,108.35 189.32,105.9 C189.61,103.34 189.84,100.77 190,98.19 C190.17,95.44 190.28,92.68 190.34,89.93 C190.41,86.24 190.29,82.56 190.02,78.88 C189.84,76.45 189.61,74.03 189.3,71.61 C188.88,68.3 188.28,65.03 187.49,61.79 C186.86,59.2 186.14,56.62 185.18,54.12 C185.84,53.7 186.6,53.49 187.33,53.22 C188.81,52.67 190.3,52.19 191.82,51.77 C193.34,51.36 194.87,51.01 196.43,50.75 C196.54,50.73 196.64,50.7 196.75,50.7 C196.82,50.7 196.88,50.7 196.94,50.72 C198,52.52 199.06,54.32 199.96,56.22 C202.24,60.99 203.83,65.99 204.96,71.14 L204.96,71.14 Z" id="Shape" fill="#FDBF41"></path>
                    <path id="Shape" fill="#3180F4"></path>
                    <path d="M331.52,256.92 C331.53,256.66 331.55,256.4 331.55,256.14 C331.55,251.86 331.56,247.57 331.56,243.29 C331.56,241.44 331.53,239.59 331.52,237.74 C331.52,237.63 331.57,237.51 331.56,237.4 C331.53,237.33 331.49,237.28 331.46,237.22 L331.46,237.24 C331.46,237.23 331.46,237.22 331.45,237.21 C331.37,236.94 331.28,236.68 331.2,236.41 C331.08,236.03 330.94,235.66 330.8,235.31 C330.66,234.95 330.5,234.6 330.33,234.25 C330.16,233.91 329.97,233.57 329.78,233.25 C329.55,232.87 329.31,232.5 329.05,232.14 C328.52,231.4 327.93,230.71 327.27,230.06 C326.88,229.67 326.47,229.29 326.04,228.92 C325.68,228.56 325.31,228.23 324.93,227.91 C323.28,226.51 321.45,225.35 319.67,224.12 C319.2,223.8 318.71,223.51 318.22,223.24 C317.83,223.03 317.43,222.82 317.03,222.62 C316.73,222.47 316.42,222.32 316.12,222.17 C315.73,221.97 315.34,221.78 314.95,221.59 C313.37,220.81 311.78,220.04 310.16,219.34 C309.09,218.89 308.03,218.44 306.95,218.02 C302.65,216.32 298.28,214.85 293.86,213.55 C290.54,212.57 287.19,211.68 283.83,210.86 C281.61,210.32 279.39,209.8 277.16,209.32 C274.93,208.84 272.7,208.38 270.46,207.94 C266.65,207.19 262.83,206.5 259.01,205.89 C257.73,205.69 256.46,205.49 255.18,205.3 C252.1,204.84 249.03,204.4 245.94,203.99 C242.86,203.58 239.77,203.21 236.67,202.9 C234.74,202.71 232.81,202.51 230.88,202.32 C230.79,202.32 230.69,202.3 230.6,202.29 C227.91,202.02 225.22,201.77 222.52,201.55 C219.6,201.31 216.67,201.11 213.75,200.91 C211.8,200.78 209.85,200.66 207.9,200.56 C205.36,200.42 202.82,200.29 200.29,200.19 C199.9,200.17 199.51,200.15 199.12,200.14 C196.75,200.04 194.39,199.96 192.02,199.89 C189.65,199.82 187.29,199.76 184.92,199.72 L182.31,199.69 L179.88,199.66 C177.64,199.64 175.4,199.63 173.17,199.64 C171.86,199.64 170.55,199.65 169.25,199.66 C165.78,199.69 162.31,199.74 158.84,199.83 C157.89,199.85 156.94,199.88 155.98,199.9 C154.51,199.94 153.03,199.99 151.56,200.05 C150.57,200.09 149.58,200.14 148.59,200.18 C144.74,200.34 140.89,200.54 137.04,200.77 C132.95,201.03 128.86,201.31 124.78,201.66 C122.08,201.89 119.38,202.14 116.69,202.41 C112.65,202.81 108.62,203.26 104.59,203.77 C100.56,204.28 96.54,204.84 92.53,205.46 C91.42,205.63 90.31,205.81 89.2,206 C88.45,206.12 87.71,206.25 86.96,206.38 C86.39,206.48 85.82,206.57 85.25,206.67 C86.06,202.59 86.99,198.54 88.02,194.51 C88.41,192.99 88.79,191.48 89.17,189.96 C89.71,188.47 90.1,186.93 90.53,185.41 C90.58,185.23 90.63,185.06 90.68,184.88 C92.79,177.77 95.19,170.76 97.86,163.86 C99.55,159.48 101.35,155.14 103.26,150.84 C104.54,147.96 105.87,145.09 107.24,142.26 C111.77,132.89 116.8,123.78 122.38,114.97 C127.59,106.71 133.26,98.79 139.47,91.25 C139.6,91.1 139.7,90.92 139.82,90.76 C141.69,88.62 143.53,86.46 145.44,84.35 C151.66,77.46 158.36,71.08 165.78,65.49 C167.61,64.11 169.5,62.81 171.37,61.48 C171.54,61.36 171.75,61.34 171.95,61.33 C172.04,61.06 172.29,60.94 172.5,60.81 C176.33,58.36 180.31,56.18 184.5,54.42 C184.65,54.36 184.79,54.28 184.95,54.23 C184.99,54.22 185.04,54.21 185.09,54.2 C185.14,54.2 185.19,54.18 185.24,54.18 C185.9,53.76 186.66,53.55 187.39,53.28 C188.87,52.73 190.36,52.25 191.88,51.83 C193.4,51.42 194.93,51.07 196.49,50.81 C196.6,50.79 196.7,50.76 196.81,50.76 C196.88,50.76 196.94,50.76 197,50.78 C197.87,50.5 198.78,50.47 199.67,50.38 C200.14,50.33 200.61,50.29 201.07,50.26 C201.47,50.24 201.87,50.22 202.27,50.21 C202.92,50.2 203.57,50.2 204.22,50.21 C204.67,50.22 205.13,50.24 205.58,50.26 C205.93,50.28 206.28,50.3 206.63,50.33 C206.69,50.33 206.75,50.34 206.8,50.35 C206.91,50.37 207.01,50.4 207.11,50.44 C207.21,50.48 207.3,50.53 207.39,50.59 C207.52,50.67 207.65,50.78 207.77,50.89 C208.08,51.17 208.38,51.46 208.67,51.75 C209.26,52.33 209.83,52.94 210.37,53.56 C211.74,55.11 212.97,56.76 214.1,58.52 C216.86,62.83 218.86,67.49 220.37,72.37 C220.84,73.88 221.26,75.4 221.64,76.93 C222.27,79.48 222.76,82.07 223.15,84.67 C223.26,85.43 223.37,86.19 223.47,86.96 C223.66,88.49 223.83,90.02 223.97,91.55 C224.03,92.32 224.09,93.08 224.15,93.85 C224.43,98.03 224.55,102.21 224.44,106.4 C224.32,110.78 224.06,115.16 223.62,119.53 C223.18,123.87 222.58,128.19 221.86,132.48 C221.43,135.06 220.95,137.63 220.43,140.18 C221.1,140.23 221.77,140.28 222.44,140.34 C227.25,140.74 232.05,141.22 236.85,141.66 C236.81,141.61 236.77,141.57 236.72,141.53 C240.7,142.02 244.69,142.5 248.67,142.99 C248.65,143.03 248.62,143.07 248.58,143.11 C248.82,143.14 249.06,143.18 249.3,143.21 C250.1,139.27 250.82,135.33 251.43,131.36 C251.97,127.8 252.45,124.23 252.82,120.65 C253.17,117.3 253.48,113.95 253.64,110.58 C253.72,108.96 253.81,107.33 253.91,105.71 C253.92,105.5 253.81,105.22 254.14,105.13 C254.14,102.11 254.12,99.08 254.11,96.06 C253.95,95.99 253.94,95.85 253.92,95.7 C253.88,95.09 253.81,94.49 253.79,93.88 C253.67,89.49 253.27,85.13 252.68,80.79 C252.03,75.98 251.07,71.24 249.74,66.57 C249.41,65.4 249.13,64.22 248.61,63.11 L248.5,62.71 C248.5,62.71 248.46,62.68 248.46,62.66 L248.46,62.62 C248.43,62.48 248.41,62.34 248.36,62.2 C246.43,56.63 243.91,51.35 240.44,46.55 C237.1,41.92 233.07,38.05 228.1,35.17 C226.24,34.09 224.22,33.33 222.31,32.36 C222.14,32.27 221.92,32.29 221.72,32.25 C221.55,32.03 221.28,31.97 221.05,31.86 C216.54,29.86 212.04,27.86 207.52,25.88 C206.94,25.62 206.41,25.24 205.76,25.16 C205.65,25.12 205.54,25.09 205.43,25.05 C204.66,24.8 203.87,24.62 203.13,24.27 C203.06,24.25 203,24.23 202.93,24.2 C202.9,24.19 202.86,24.18 202.83,24.17 L202.81,24.17 C202.73,24.22 202.68,24.18 202.63,24.11 C201.18,23.74 199.73,23.46 198.26,23.26 C197.2,23.11 196.14,23 195.07,22.94 C194.71,22.92 194.36,22.91 194,22.9 C192.93,22.87 191.87,22.88 190.81,22.93 C189.4,22.99 188,23.12 186.6,23.31 C184.16,23.65 181.74,24.16 179.34,24.82 C179,24.92 178.65,25.01 178.31,25.12 C173.8,26.46 169.5,28.27 165.35,30.41 C163.97,31.12 162.6,31.87 161.24,32.66 C160,33.37 158.78,34.1 157.57,34.87 C157.17,35.12 156.77,35.38 156.37,35.64 C155.97,35.9 155.57,36.16 155.18,36.43 C154.39,36.96 153.61,37.5 152.84,38.06 C152.46,38.34 152.07,38.62 151.69,38.9 L151.69,38.98 C151.69,39 151.67,39.02 151.66,39.04 C151.63,39.07 151.59,39.08 151.53,39.08 L151.52,39.08 L151.52,39.13 C151.52,39.17 151.5,39.19 151.48,39.2 C151.46,39.21 151.44,39.21 151.4,39.2 C151.39,39.2 151.37,39.2 151.36,39.18 C149.66,40.37 148.01,41.61 146.4,42.9 C145.68,43.47 144.97,44.06 144.27,44.65 C144.16,44.74 144.05,44.84 143.94,44.93 C143.22,45.54 142.5,46.16 141.79,46.79 L141.79,46.84 C141.79,46.89 141.77,46.92 141.74,46.95 C141.74,46.95 141.72,46.96 141.71,46.97 C141.69,46.98 141.66,46.99 141.63,46.99 C141.61,47.03 141.58,47.07 141.55,47.1 C141.51,47.14 141.48,47.18 141.43,47.21 C141.37,47.25 141.3,47.29 141.22,47.3 C141.22,47.39 141.2,47.44 141.16,47.46 C141.1,47.5 140.99,47.47 140.91,47.48 C140.64,47.76 140.36,48.04 140.09,48.31 C140.07,48.33 140.06,48.35 140.04,48.36 L140.04,48.4 C140.04,48.44 140.02,48.46 140,48.49 L139.99,48.49 C139.99,48.49 139.93,48.52 139.87,48.52 C139.63,48.72 139.37,48.9 139.14,49.11 C139.12,49.13 139.1,49.14 139.08,49.16 C138.2,49.99 137.31,50.82 136.44,51.67 C136.38,51.73 136.32,51.78 136.27,51.83 C136,52.1 135.72,52.35 135.44,52.61 C134.74,53.26 134.02,53.89 133.35,54.57 C132.99,54.94 132.62,55.31 132.26,55.67 C130.18,57.78 128.12,59.91 126.13,62.11 C123.59,64.92 121.12,67.78 118.72,70.7 C118.38,71.12 118.03,71.53 117.69,71.95 C117.64,72.01 117.58,72.08 117.54,72.15 C117.47,72.25 117.4,72.35 117.33,72.46 C117.24,72.6 117.15,72.74 117.06,72.87 C116.99,72.97 116.92,73.06 116.84,73.16 C116.81,73.19 116.79,73.22 116.77,73.24 C116.66,73.36 116.55,73.47 116.42,73.56 C116.42,73.59 116.41,73.6 116.4,73.62 C116.4,73.64 116.4,73.66 116.38,73.68 C116.38,73.69 116.36,73.7 116.35,73.71 C116.33,73.72 116.3,73.73 116.28,73.74 C116.22,74.02 115.99,74.16 115.8,74.34 C115.79,74.34 115.78,74.36 115.77,74.37 C115.71,74.42 115.67,74.48 115.63,74.54 C115.61,74.57 115.59,74.6 115.58,74.64 C115.57,74.68 115.55,74.71 115.54,74.75 L115.54,74.8 C115.54,74.85 115.52,74.88 115.48,74.91 C115.48,74.91 115.46,74.91 115.46,74.92 L115.42,74.92 L115.38,74.92 C114.94,75.47 114.49,76.02 114.05,76.57 C114.03,76.6 114,76.63 113.98,76.66 C113.99,76.73 113.99,76.79 113.98,76.85 C113.98,76.9 113.95,76.93 113.93,76.97 C113.93,76.98 113.91,77 113.91,77.01 C113.88,77.04 113.84,77.08 113.8,77.1 C113.75,77.13 113.69,77.15 113.63,77.17 C113.56,77.25 113.49,77.32 113.42,77.4 C113.39,77.43 113.37,77.46 113.35,77.48 C113.29,77.54 113.24,77.61 113.19,77.67 C112.06,79.19 110.93,80.72 109.8,82.24 C109.8,82.29 109.78,82.32 109.75,82.35 C109.75,82.35 109.74,82.36 109.73,82.37 C109.71,82.39 109.68,82.4 109.65,82.4 C108.87,83.5 108.07,84.59 107.3,85.7 C107.15,85.92 107,86.14 106.85,86.36 C105.7,88.05 104.62,89.79 103.46,91.47 C102.88,92.31 102.33,93.17 101.78,94.02 C101.22,94.87 100.66,95.72 100.05,96.55 C99.08,97.88 98.25,99.33 97.4,100.74 C97.03,101.35 96.66,101.96 96.3,102.57 C92.19,109.39 88.2,116.28 84.8,123.49 C84.6,123.91 84.37,124.3 84.14,124.7 C83.91,125.09 83.67,125.49 83.47,125.89 C82.31,128.22 81.18,130.56 80.08,132.92 C79.67,133.8 79.27,134.68 78.86,135.57 C78.33,136.72 77.81,137.88 77.3,139.04 C76.65,140.51 76,141.99 75.36,143.48 C75.09,144.1 74.83,144.73 74.57,145.36 C74.24,146.14 73.91,146.92 73.59,147.71 C72.45,150.48 71.35,153.28 70.28,156.08 C69.97,156.9 69.66,157.72 69.36,158.55 C68.63,160.55 67.92,162.55 67.21,164.56 C67.04,165.04 66.87,165.52 66.7,166 C66.57,166.37 66.44,166.75 66.32,167.13 C65.99,168.08 65.68,169.04 65.38,170 C65.01,171.17 64.65,172.34 64.29,173.51 C64.03,174.35 63.77,175.18 63.5,176.02 C62.89,177.89 62.18,179.74 61.94,181.71 C61.93,181.81 61.81,181.9 61.75,181.99 C61.45,182.81 61.27,183.65 61.07,184.49 C60.97,184.89 60.85,185.29 60.73,185.69 C60.61,186.09 60.49,186.49 60.38,186.89 C59.92,188.61 59.47,190.34 59.05,192.07 C58.66,193.63 58.29,195.21 57.93,196.78 C57.53,198.55 57.15,200.32 56.78,202.09 C56.46,203.64 56.15,205.2 55.86,206.76 C55.63,208 55.4,209.23 55.19,210.47 C55,211.56 54.83,212.65 54.65,213.74 C54.43,215.13 54.22,216.51 54.03,217.9 C53.86,219.15 53.7,220.39 53.54,221.64 C53.12,225.07 52.78,228.5 52.51,231.95 C52.44,232.94 52.37,233.92 52.32,234.91 C52.26,235.9 52.21,236.88 52.17,237.87 C52.09,239.84 52.03,241.82 51.97,243.79 C51.96,244.24 51.96,244.69 51.95,245.14 L51.95,245.55 C51.94,248.08 52.04,250.6 52.12,253.11 C52.12,253.22 52.14,253.34 52.14,253.45 C52.16,253.9 52.18,254.35 52.21,254.8 C52.3,256.62 52.45,258.44 52.64,260.26 C52.77,261.49 52.91,262.73 53.07,263.96 C53.09,264.14 53.12,264.31 53.14,264.49 C53.48,266.99 53.87,269.48 54.36,271.95 C55.27,276.57 56.48,281.11 58.14,285.52 C58.17,285.59 58.2,285.67 58.23,285.75 C59.47,289.01 60.91,292.18 62.68,295.2 C65.59,300.17 69.14,304.57 73.67,308.08 C74.21,308.5 74.76,308.9 75.32,309.3 C75.86,309.67 76.44,310.01 77,310.35 C77.1,310.42 77.22,310.47 77.33,310.52 C77.41,310.56 77.49,310.59 77.57,310.63 C77.71,310.7 77.84,310.79 77.93,310.92 C77.96,310.96 77.99,311.02 78.02,311.08 L78.02,311.06 C78.17,311.04 78.3,311.07 78.37,311.23 L78.38,311.23 C78.52,311.23 78.65,311.27 78.72,311.4 C78.76,311.4 78.79,311.4 78.82,311.41 L78.83,311.41 C78.92,311.43 79,311.47 79.06,311.56 L79.06,311.57 L79.09,311.57 L79.15,311.57 C79.17,311.57 79.18,311.58 79.21,311.58 C79.22,311.58 79.24,311.58 79.25,311.59 C79.27,311.59 79.29,311.61 79.31,311.62 C79.31,311.62 79.33,311.62 79.34,311.63 C79.36,311.65 79.38,311.67 79.4,311.69 L79.41,311.69 C79.6,311.89 79.86,311.94 80.1,312.05 C85.09,314.26 90.09,316.47 95.08,318.68 C97.55,319.77 100,320.92 102.61,321.64 C105.22,322.36 107.87,322.85 110.58,322.96 L111.93,322.96 L115.98,322.96 C117.29,322.92 118.59,322.75 119.88,322.55 C125.13,321.76 130.17,320.21 135.04,318.12 C143.96,314.29 152.01,309.06 159.56,303.01 C161.22,301.68 162.84,300.31 164.45,298.92 C170.06,299.02 175.66,299.05 181.27,298.99 C186.61,298.93 191.96,298.84 197.3,298.63 C197.56,298.48 197.84,298.48 198.12,298.59 L198.36,298.59 C198.68,298.44 199.01,298.45 199.34,298.55 L199.58,298.55 C199.77,298.43 199.97,298.41 200.17,298.45 L200.19,298.45 L200.2,298.45 C200.27,298.47 200.33,298.49 200.39,298.51 L200.63,298.51 C200.76,298.43 200.89,298.4 201.02,298.39 C201.16,298.39 201.3,298.42 201.45,298.46 L201.69,298.46 C201.78,298.41 201.87,298.38 201.96,298.36 C202.14,298.32 202.33,298.34 202.52,298.41 L202.75,298.41 C202.75,298.41 202.77,298.41 202.78,298.4 C203.04,298.27 203.31,298.27 203.57,298.37 L203.8,298.37 C204.07,298.2 204.34,298.22 204.63,298.32 L204.86,298.32 C205.13,298.16 205.41,298.18 205.69,298.27 L205.92,298.27 C205.98,298.23 206.03,298.21 206.08,298.19 C206.17,298.16 206.25,298.16 206.34,298.16 C206.42,298.16 206.51,298.18 206.59,298.22 C207.81,298.16 209.02,298.12 210.24,298.05 C219.58,297.5 228.89,296.76 238.19,295.73 C252.31,294.16 266.34,292.05 280.2,288.89 C289.64,286.74 298.95,284.16 307.95,280.53 C312.78,278.58 317.47,276.35 321.81,273.43 C324.42,271.67 326.84,269.69 328.78,267.16 C330,265.55 330.99,263.82 331.37,261.8 C331.52,261.64 331.58,261.45 331.59,261.25 C331.68,259.8 331.73,258.36 331.6,256.91 L331.52,256.92 Z M206.17,226.33 C203.57,226.17 200.98,226.03 198.38,225.92 C200.98,226.04 203.57,226.18 206.17,226.33 L206.17,226.33 Z M148.5,273.54 C148.08,273.91 147.66,274.29 147.24,274.66 C144.29,277.25 141.25,279.7 138.08,281.99 C134.91,284.27 131.62,286.39 128.18,288.28 C127.69,288.55 127.19,288.82 126.69,289.08 C125.54,289.68 124.38,290.25 123.21,290.8 C122.04,291.34 120.85,291.84 119.65,292.31 C117.25,293.25 114.79,294.03 112.25,294.63 C111.15,294.89 110.05,295.11 108.95,295.28 C108.56,295.34 108.17,295.4 107.79,295.46 C106.29,295.66 104.79,295.78 103.28,295.82 C102.78,295.83 102.27,295.84 101.77,295.83 C101.26,295.83 100.76,295.81 100.25,295.79 C100.03,295.78 99.82,295.75 99.6,295.73 C99.39,295.71 99.17,295.68 98.95,295.66 C98.67,295.64 98.46,295.52 98.25,295.34 C97.65,294.8 97.08,294.24 96.52,293.66 C95.69,292.8 94.9,291.9 94.16,290.97 C93.67,290.35 93.19,289.71 92.73,289.05 C92.5,288.72 92.28,288.39 92.06,288.06 C92.04,288.03 92.03,288 92.02,287.97 C92.01,287.92 91.99,287.86 91.98,287.81 C91.89,287.72 91.77,287.63 91.7,287.53 L91.68,287.51 C90.65,285.88 89.72,284.2 88.88,282.47 C88.46,281.6 88.06,280.74 87.69,279.85 C87.31,278.97 86.96,278.07 86.63,277.16 C86.59,277.05 86.6,276.94 86.58,276.82 C86,275.74 85.71,274.56 85.35,273.41 C84.55,270.84 83.92,268.23 83.4,265.59 C83.31,265.12 83.22,264.66 83.13,264.19 C83.09,264 83.07,263.82 83.03,263.63 C82.99,263.4 82.94,263.17 82.9,262.94 C82.9,262.88 82.9,262.83 82.88,262.77 C82.86,262.57 82.85,262.36 82.83,262.16 C82.49,260.69 82.34,259.19 82.17,257.69 C81.59,252.91 81.37,248.11 81.36,243.31 C81.36,241.5 81.38,239.68 81.43,237.86 C81.46,236.78 81.51,235.71 81.57,234.64 C85.52,233.7 89.5,232.87 93.49,232.11 C100.31,230.82 107.17,229.77 114.05,228.92 C114.16,228.91 114.27,228.89 114.38,228.88 C114.51,228.86 114.64,228.85 114.77,228.86 C114.85,228.86 114.93,228.88 115.01,228.9 C116.08,228.67 117.17,228.55 118.26,228.44 C118.76,228.39 119.26,228.34 119.75,228.29 C127.31,227.45 134.88,226.81 142.46,226.35 C144.59,226.22 146.72,226.1 148.84,226 C154.28,225.74 159.72,225.57 165.16,225.47 C168.14,225.41 171.12,225.38 174.1,225.38 C178.35,225.38 182.6,225.43 186.84,225.53 C185.92,227.06 184.99,228.59 184.04,230.1 C183.35,231.21 182.65,232.31 181.94,233.4 C180.67,235.35 179.38,237.28 178.06,239.2 C175.62,242.74 173.09,246.21 170.46,249.61 C169.63,250.69 168.79,251.76 167.93,252.82 C167.78,253.01 167.63,253.2 167.48,253.38 C166.24,254.92 164.98,256.43 163.69,257.92 C161.54,260.41 159.33,262.84 157.06,265.22 C156.37,265.94 155.68,266.66 154.98,267.37 C153.18,269.19 151.32,270.97 149.42,272.7 C150,272.73 150.58,272.75 151.16,272.78 C150.58,272.75 150,272.73 149.42,272.7 C149.11,272.98 148.8,273.27 148.49,273.55 L148.5,273.54 Z M158.62,273.06 C160.82,273.13 163.03,273.19 165.23,273.23 C163.02,273.19 160.82,273.13 158.62,273.06 L158.62,273.06 Z M304.04,249.64 C303.98,249.72 303.88,249.8 303.72,249.92 C303.51,250.08 303.3,250.25 303.08,250.4 C302.87,250.56 302.65,250.71 302.43,250.87 C302.02,251.16 301.6,251.44 301.17,251.71 C301.12,251.74 301.07,251.77 301.02,251.81 C300.67,252.03 300.32,252.25 299.96,252.46 C299.43,252.78 298.91,253.08 298.37,253.38 C294.71,255.42 290.86,257.06 286.93,258.51 C283.22,259.87 279.46,261.06 275.67,262.12 C270.24,263.64 264.74,264.9 259.19,266 C253.8,267.08 248.39,267.99 242.96,268.78 C237.53,269.57 232.08,270.23 226.62,270.8 C224.83,270.99 223.04,271.16 221.25,271.33 C217.66,271.66 214.07,271.94 210.48,272.18 C208.68,272.3 206.88,272.41 205.09,272.51 C201.06,272.74 197.03,272.91 193,273.04 C192.27,273.06 191.54,273.09 190.8,273.11 C190.13,273.13 189.46,273.15 188.78,273.17 C190.43,271.13 192.08,269.1 193.59,266.95 C193.81,266.68 194.03,266.41 194.24,266.13 C197.47,261.78 200.57,257.35 203.55,252.84 C203.71,252.59 204.54,251.33 204.79,250.94 C206.68,248.03 208.51,245.09 210.3,242.11 C213.22,237.23 216.01,232.28 218.66,227.26 C223.72,227.7 228.77,228.21 233.82,228.83 C234.19,228.87 234.56,228.95 234.94,229.01 C237.2,229.17 239.44,229.51 241.67,229.84 C244.54,230.26 247.41,230.72 250.27,231.2 C254.13,231.85 257.99,232.57 261.82,233.4 C263.89,233.85 265.95,234.31 268.02,234.76 C268.04,234.76 268.07,234.76 268.09,234.77 C268.11,234.77 268.13,234.77 268.16,234.78 C268.29,234.8 268.44,234.8 268.58,234.82 C268.76,234.84 268.94,234.89 269.08,235.04 C273.5,236.17 277.91,237.36 282.24,238.79 C282.64,238.92 283.1,238.96 283.41,239.3 C284.54,239.5 285.57,239.97 286.63,240.36 C287.56,240.7 288.49,241.06 289.41,241.43 C292.04,242.47 294.62,243.62 297.12,244.95 C298.11,245.47 299.08,246.02 300.04,246.6 C301.31,247.37 302.55,248.18 303.71,249.11 C304.05,249.38 304.15,249.49 304.02,249.65 L304.04,249.64 Z" id="Shape" fill="#007FFF"></path>
                    <path d="M331.61,177.56 C331.49,175.17 330.58,173.06 329.19,171.14 C327.23,168.41 324.7,166.28 321.96,164.4 C317.29,161.2 312.18,158.85 306.95,156.75 C304.04,155.58 301.09,154.54 298.11,153.58 C293.57,152.12 288.96,150.87 284.33,149.73 C278.54,148.31 272.72,147.08 266.86,146.01 C263.29,145.36 259.71,144.73 256.12,144.21 C256.01,144.21 255.9,144.2 255.79,144.19 C255.73,144.19 255.66,144.18 255.6,144.17 C255.47,144.16 255.33,144.14 255.2,144.13 C254.9,144.09 254.59,144.03 254.3,143.96 C253.23,143.79 252.17,143.62 251.1,143.44 C250.48,143.35 249.86,143.26 249.24,143.18 C249,143.14 248.76,143.11 248.52,143.08 C246.05,142.78 243.57,142.49 241.1,142.17 C240.38,142.08 239.66,142.02 238.94,141.94 C238.22,141.87 237.5,141.78 236.79,141.64 C231.99,141.19 227.19,140.71 222.38,140.32 C221.71,140.27 221.04,140.21 220.37,140.16 C216.23,139.83 212.09,139.55 207.94,139.35 C205.95,139.26 203.95,139.15 201.95,139.05 C200.44,138.98 198.92,138.9 197.41,138.84 C193.95,138.71 190.5,138.63 187.04,138.56 C185.75,138.53 184.46,138.51 183.18,138.49 C181.01,138.45 183.18,138.49 183.18,138.49 C183.18,138.49 185.55,128.95 186.5,124.13 C187.22,120.52 187.84,116.89 188.39,113.25 C188.75,110.81 189.07,108.37 189.35,105.92 C189.64,103.36 189.87,100.79 190.03,98.21 C190.2,95.46 190.31,92.7 190.37,89.95 C190.44,86.26 190.32,82.58 190.05,78.9 C189.87,76.47 189.64,74.05 189.33,71.63 C188.91,68.32 188.31,65.05 187.52,61.81 C186.89,59.22 186.17,56.64 185.21,54.14 C185.16,54.14 185.11,54.14 185.06,54.16 C185.01,54.16 184.96,54.18 184.92,54.19 C184.76,54.24 184.62,54.32 184.47,54.38 C180.27,56.14 176.3,58.33 172.47,60.77 C172.25,60.91 172.01,61.02 171.92,61.29 C172.84,67.1 173.27,72.94 173.32,78.82 C173.4,87.23 172.78,95.59 171.63,103.92 C170.76,110.19 169.61,116.41 168.21,122.59 C167,127.95 165.6,133.26 164.04,138.52 C160.27,138.56 156.49,138.68 152.72,138.8 C147.7,138.97 142.68,139.2 137.67,139.52 C133.25,139.8 128.82,140.09 124.4,140.47 C118.66,140.97 112.93,141.53 107.22,142.23 C105.85,145.07 104.52,147.93 103.24,150.81 C101.33,155.11 99.53,159.45 97.84,163.83 C97.92,163.82 97.99,163.81 98.07,163.8 C104.74,162.86 111.44,162.08 118.14,161.41 C120.06,161.22 121.98,160.99 123.91,160.82 C128.67,160.42 133.44,160.15 138.21,159.85 C144.41,159.45 150.62,159.2 156.84,159.02 L157.07,159.02 C162.36,158.87 167.65,158.8 172.95,158.79 C174.28,158.79 175.61,158.79 176.95,158.8 C179.97,158.81 183,158.84 186.02,158.89 C189.45,158.95 192.87,159.08 196.3,159.2 L196.39,159.2 C199.67,159.32 202.95,159.44 206.23,159.6 C208.75,159.72 211.27,159.9 213.79,160.09 C214.33,160.13 214.87,160.17 215.41,160.21 C219.19,160.48 222.96,160.76 226.74,161.05 C227.67,161.12 228.59,161.25 229.52,161.34 C234.52,161.78 239.51,162.34 244.49,162.98 C246.72,163.26 248.94,163.56 251.17,163.86 C255.86,164.51 260.54,165.29 265.2,166.1 C269.69,166.89 274.17,167.78 278.61,168.79 C282.52,169.68 286.41,170.65 290.27,171.7 C295.34,173.08 300.32,174.69 305.24,176.51 C309.49,178.09 313.6,179.95 317.58,182.12 C320.32,183.62 322.92,185.3 325.29,187.34 C327.44,189.19 329.32,191.27 330.57,193.87 C331.07,194.9 331.3,196.01 331.62,197.09 C331.63,194.94 331.65,192.79 331.66,190.64 L331.66,181.06 C331.66,179.9 331.7,178.73 331.64,177.58 L331.61,177.56 Z" id="Shape" fill="#FF1100"></path>
                    <path d="M205.37,25.02 C204.6,24.77 203.81,24.59 203.07,24.24 C203.07,24.14 203.08,24.04 203.09,23.94 C204.01,24.22 204.88,24.61 205.69,25.13 C205.58,25.09 205.47,25.06 205.36,25.02 L205.37,25.02 Z" id="Shape" fill="#404A5A"></path>
                    <path id="Shape" fill="#404A5A"></path>
                    <path id="Shape" fill="#404A5A"></path>
                    <path id="Shape" fill="#404A5A"></path>
                    <path id="Shape" fill="#215CB5"></path>
                    <path id="Shape" fill="#215CB5"></path>
                    <path id="Shape" fill="#FEC35E"></path>
                    <path d="M187.2,17.01 L187.19,17.01 L187.2,17.01 Z" id="Shape" fill="#FDBF41"></path>
                    <path id="Shape" fill="#404A5A"></path>
                    <path id="Shape" fill="#404A5A"></path>
                    <path id="Shape" fill="#404A5A"></path>
                    <path id="Shape" fill="#404A5A"></path>
                    <path id="Shape" fill="#404A5A"></path>
                    <path d="M203.03,23.88 C198.09,21.68 193.14,19.49 188.2,17.28 C188,17.19 187.8,17.26 187.62,17.15 C187.45,17.19 187.27,17.23 187.2,17.01 C187,17.1 186.81,17.01 186.62,16.94 C182.29,15.64 177.86,15.24 173.35,15.47 C167.38,15.78 161.66,17.24 156.1,19.39 C154.35,20.06 152.63,20.8 150.95,21.59 C150.53,21.79 150.11,21.99 149.69,22.2 C149.2,22.44 148.71,22.68 148.23,22.94 C147.58,23.27 146.94,23.61 146.29,23.96 C142.92,25.8 139.65,27.85 136.48,30.05 C135.82,30.51 135.16,30.97 134.51,31.44 L134.12,31.72 C132.56,32.86 131.03,34.02 129.53,35.22 C125.77,38.21 122.16,41.39 118.67,44.72 C108.98,53.97 100.37,64.18 92.49,75 C92.29,75.28 92.09,75.57 91.89,75.85 C91.69,76.13 91.87,75.92 91.85,75.94 C91.83,75.96 91.8,75.97 91.76,75.98 C91.05,76.99 90.35,77.99 89.64,79 C88.46,80.68 87.3,82.36 86.16,84.07 C85.08,85.69 84.01,87.33 82.96,88.97 C82.12,90.27 81.3,91.58 80.49,92.9 C79.77,94.08 79.05,95.25 78.34,96.43 C77.34,98.1 76.35,99.78 75.37,101.48 C74.88,102.33 74.4,103.17 73.92,104.03 C73.87,104.13 73.8,104.22 73.74,104.32 C73.74,104.43 73.7,104.52 73.66,104.61 C73.62,104.67 73.58,104.74 73.55,104.8 C73.1,105.6 72.66,106.41 72.22,107.22 C70.56,110.25 68.94,113.31 67.38,116.39 C66.72,117.69 66.07,119 65.43,120.31 C61.97,127.39 58.76,134.58 55.81,141.87 C54.24,145.74 52.75,149.64 51.33,153.56 C50.58,155.64 49.84,157.73 49.13,159.83 C47.82,163.71 46.62,167.62 45.45,171.54 C44.97,173.15 44.5,174.77 44.05,176.39 C44.04,176.43 44.03,176.47 44.02,176.51 C43.31,179.05 42.65,181.6 42.03,184.16 C41.46,186.46 40.91,188.77 40.4,191.09 C39.96,193.07 39.56,195.06 39.16,197.05 C39.07,197.52 38.98,197.99 38.89,198.47 C38.85,198.66 38.82,198.85 38.78,199.04 C38.77,199.11 38.75,199.18 38.74,199.26 C38.67,199.64 38.59,200.01 38.52,200.39 C37.95,203.5 37.44,206.62 37,209.76 C36.57,212.79 36.19,215.81 35.87,218.85 C35.8,219.53 35.74,220.21 35.67,220.89 C35.67,220.94 35.66,220.99 35.66,221.04 C35.61,221.56 35.58,221.93 35.54,222.3 C35.4,223.99 35.28,225.69 35.18,227.38 C35.08,229.08 35,230.78 34.95,232.48 C34.95,232.7 34.95,232.92 34.93,233.14 C34.83,236.41 34.81,239.67 34.91,242.93 C35.01,246.01 35.18,249.08 35.47,252.15 C35.75,255.21 36.14,258.26 36.67,261.31 C36.93,262.8 37.21,264.28 37.53,265.75 C38.59,270.71 40.02,275.57 41.98,280.27 C42.12,280.6 42.25,280.92 42.4,281.25 C42.54,281.57 42.69,281.9 42.83,282.22 C43.17,282.98 43.53,283.73 43.9,284.47 C44.52,285.71 45.18,286.92 45.88,288.1 C47.8,291.34 50.06,294.35 52.74,297.07 C53.44,297.79 54.17,298.47 54.92,299.12 C56.33,300.35 57.83,301.48 59.43,302.49 C59.73,302.68 60.08,302.79 60.3,303.08 C60.33,303.12 60.36,303.17 60.38,303.22 C60.53,303.19 60.64,303.22 60.68,303.38 C61.3,303.53 61.8,303.95 62.37,304.2 C65.41,305.55 68.44,306.9 71.48,308.25 C73.21,309.02 74.95,309.77 76.69,310.53 L76.91,310.33 C76.35,309.98 75.77,309.65 75.23,309.28 C74.66,308.89 74.12,308.48 73.58,308.06 C69.05,304.54 65.5,300.15 62.59,295.18 C60.82,292.16 59.38,288.99 58.14,285.73 C58.11,285.65 58.08,285.58 58.05,285.5 C56.39,281.09 55.18,276.55 54.27,271.93 C53.78,269.46 53.39,266.97 53.05,264.47 C53.03,264.29 53,264.12 52.98,263.94 C52.82,262.71 52.68,261.47 52.55,260.24 C52.36,258.42 52.22,256.61 52.12,254.78 C52.1,254.33 52.07,253.88 52.05,253.43 C52.05,253.32 52.04,253.2 52.03,253.09 C51.94,250.57 51.85,248.05 51.86,245.53 L51.86,245.12 C51.86,244.67 51.86,244.22 51.88,243.77 C51.94,241.79 52,239.82 52.08,237.85 C52.12,236.86 52.17,235.88 52.23,234.89 C52.29,233.9 52.35,232.92 52.42,231.93 C52.68,228.48 53.03,225.05 53.45,221.62 C53.6,220.37 53.76,219.13 53.94,217.88 C54.13,216.49 54.34,215.1 54.56,213.72 C54.73,212.63 54.91,211.54 55.1,210.45 C55.31,209.21 55.54,207.98 55.77,206.74 C56.06,205.18 56.37,203.63 56.69,202.07 C57.06,200.3 57.44,198.52 57.84,196.76 C58.2,195.19 58.57,193.62 58.96,192.05 C59.39,190.32 59.83,188.59 60.29,186.87 C60.4,186.47 60.52,186.07 60.64,185.67 C60.76,185.27 60.88,184.87 60.98,184.47 C61.19,183.63 61.36,182.79 61.66,181.97 C61.73,181.88 61.84,181.79 61.85,181.69 C62.09,179.71 62.8,177.86 63.41,176 C63.68,175.17 63.94,174.33 64.2,173.49 C64.56,172.32 64.92,171.15 65.29,169.98 C65.59,169.02 65.9,168.06 66.23,167.11 C66.36,166.74 66.48,166.36 66.61,165.98 C66.78,165.5 66.95,165.02 67.12,164.54 C67.84,162.54 68.54,160.53 69.27,158.53 C69.57,157.71 69.88,156.88 70.19,156.06 C71.26,153.25 72.36,150.46 73.5,147.69 C73.82,146.9 74.15,146.12 74.48,145.34 C74.75,144.71 75.01,144.09 75.27,143.46 C75.91,141.98 76.56,140.5 77.21,139.02 C77.72,137.86 78.24,136.71 78.77,135.55 C79.17,134.66 79.58,133.79 79.99,132.9 C81.09,130.54 82.21,128.2 83.38,125.87 C83.58,125.46 83.82,125.07 84.05,124.68 C84.28,124.29 84.51,123.89 84.71,123.47 C88.11,116.26 92.1,109.37 96.21,102.55 C96.58,101.94 96.94,101.33 97.31,100.72 C98.17,99.3 98.99,97.86 99.96,96.53 C100.57,95.7 101.13,94.86 101.69,94 C102.25,93.15 102.8,92.29 103.37,91.45 C104.53,89.77 105.61,88.03 106.76,86.34 C106.91,86.12 107.06,85.9 107.21,85.68 C107.98,84.57 108.78,83.48 109.56,82.38 L109.56,82.35 L109.56,82.32 C109.56,82.32 109.62,82.26 109.65,82.24 C109.67,82.24 109.69,82.22 109.71,82.22 C110.84,80.7 111.97,79.17 113.1,77.65 C113.15,77.58 113.21,77.52 113.26,77.46 C113.29,77.43 113.31,77.4 113.33,77.38 C113.4,77.3 113.47,77.23 113.54,77.15 L113.54,77.05 C113.54,77.02 113.54,76.99 113.55,76.97 C113.57,76.91 113.59,76.87 113.62,76.83 C113.65,76.79 113.7,76.76 113.74,76.72 C113.79,76.69 113.84,76.66 113.89,76.63 C113.92,76.6 113.94,76.57 113.96,76.54 C114.4,75.99 114.85,75.44 115.29,74.89 C115.34,74.83 115.39,74.76 115.44,74.7 C115.44,74.66 115.46,74.63 115.48,74.59 C115.49,74.56 115.51,74.52 115.53,74.49 C115.57,74.43 115.62,74.37 115.67,74.32 C115.67,74.31 115.69,74.3 115.7,74.29 C115.89,74.11 116.13,73.96 116.18,73.69 L116.18,73.64 C116.18,73.59 116.22,73.55 116.26,73.53 C116.28,73.53 116.3,73.52 116.32,73.51 C116.45,73.41 116.57,73.31 116.67,73.19 C116.7,73.16 116.72,73.13 116.74,73.11 C116.82,73.02 116.89,72.92 116.96,72.82 C117.05,72.69 117.14,72.55 117.23,72.41 C117.3,72.31 117.37,72.2 117.44,72.1 C117.49,72.03 117.54,71.96 117.59,71.9 C117.93,71.48 118.28,71.06 118.62,70.65 C121.02,67.72 123.49,64.86 126.03,62.06 C128.02,59.86 130.08,57.73 132.16,55.62 C132.52,55.25 132.89,54.88 133.25,54.52 C133.93,53.84 134.64,53.21 135.34,52.56 C135.62,52.3 135.9,52.05 136.17,51.78 C136.23,51.73 136.28,51.67 136.34,51.62 C137.21,50.78 138.1,49.94 138.98,49.11 C139,49.09 139.02,49.08 139.04,49.06 C139.27,48.85 139.53,48.66 139.77,48.47 C139.83,48.42 139.88,48.37 139.94,48.31 C139.96,48.29 139.97,48.28 139.99,48.26 C140.26,47.98 140.54,47.71 140.81,47.43 C140.85,47.37 140.89,47.33 140.94,47.3 C140.99,47.27 141.05,47.25 141.12,47.25 C141.2,47.24 141.27,47.2 141.33,47.16 C141.37,47.13 141.41,47.09 141.45,47.05 C141.48,47.02 141.5,46.98 141.53,46.94 C141.58,46.88 141.64,46.81 141.69,46.75 C142.4,46.12 143.11,45.5 143.84,44.89 C143.95,44.8 144.06,44.71 144.17,44.61 C144.87,44.02 145.58,43.44 146.3,42.86 C147.91,41.57 149.57,40.32 151.26,39.14 C151.32,39.11 151.37,39.08 151.43,39.05 L151.44,39.05 C151.49,38.98 151.55,38.92 151.61,38.87 C151.99,38.59 152.38,38.3 152.76,38.03 C153.53,37.47 154.32,36.93 155.1,36.4 C155.49,36.14 155.89,35.87 156.29,35.62 C156.69,35.36 157.09,35.1 157.49,34.85 C158.7,34.09 159.92,33.35 161.16,32.64 C162.51,31.86 163.89,31.11 165.27,30.39 C169.43,28.25 173.73,26.44 178.23,25.1 C178.57,25 178.92,24.9 179.26,24.8 C181.66,24.13 184.07,23.62 186.52,23.29 C187.91,23.1 189.32,22.97 190.73,22.91 C191.79,22.86 192.85,22.85 193.92,22.88 C194.28,22.89 194.63,22.9 194.99,22.92 C196.06,22.98 197.12,23.09 198.18,23.24 C199.65,23.44 201.1,23.72 202.55,24.09 C202.59,24.08 202.62,24.07 202.66,24.09 C202.7,24.09 202.73,24.12 202.75,24.15 C202.78,24.16 202.82,24.17 202.85,24.18 C202.92,24.2 202.98,24.22 203.05,24.25 C203.05,24.15 203.06,24.05 203.07,23.95 C203.05,23.93 203.03,23.91 203,23.9 L203.03,23.88 Z" id="Shape" fill="#F1ECE2"></path>
                    <path d="M187.21,17 C187.14,16.69 186.84,16.66 186.62,16.56 C182.36,14.67 178.1,12.77 173.82,10.9 C172.68,10.4 171.58,9.82 170.4,9.42 C170.27,9.5 170.13,9.49 169.99,9.44 C167.06,8.48 164.02,8 160.96,7.81 C158.15,7.64 155.33,7.81 152.54,8.18 C150.24,8.49 147.98,8.97 145.74,9.57 C141.39,10.74 137.21,12.33 133.18,14.32 C131.63,15.09 130.13,15.96 128.6,16.77 C128.09,17.04 127.56,17.28 127.07,17.57 C122.69,20.18 118.44,22.99 114.41,26.12 C113.4,26.9 112.37,27.66 111.43,28.51 C110.82,29.06 110.23,29.62 109.57,30.1 C109.45,30.19 109.32,30.28 109.17,30.37 C109.06,30.47 108.95,30.56 108.84,30.65 L108.84,30.67 C108.79,30.8 108.74,30.92 108.66,30.99 C108.61,31.03 108.56,31.05 108.5,31.06 L108.4,31.06 L108.38,31.06 C108.38,31.06 108.32,31.04 108.28,31.03 C108.25,31.05 108.22,31.07 108.2,31.09 C107.85,31.34 107.66,31.77 107.34,32.02 C107.29,32.06 107.24,32.09 107.19,32.12 C106.35,32.56 105.84,33.35 105.09,33.89 C104.37,34.41 103.77,35.1 103.11,35.71 C99.84,38.72 96.75,41.91 93.69,45.13 C92.75,46.12 91.91,47.18 91.01,48.21 C90.49,48.8 89.91,49.32 89.4,49.9 C88.01,51.49 86.66,53.12 85.29,54.72 C84.27,55.91 83.31,57.14 82.4,58.41 C81.68,59.42 80.82,60.32 80.05,61.29 C77.72,64.28 75.51,67.36 73.3,70.43 C71.12,73.46 69.12,76.61 67.05,79.72 C65.19,82.51 63.48,85.4 61.71,88.26 C61.06,89.32 60.48,90.42 59.82,91.48 C58.69,93.3 57.64,95.17 56.65,97.07 C56.03,97.81 55.66,98.71 55.19,99.54 C54.21,101.28 53.27,103.04 52.42,104.85 C52.15,105.43 51.76,105.92 51.48,106.5 C50.69,108.11 49.89,109.72 49.06,111.32 C46.99,115.34 45.17,119.47 43.28,123.58 C41.23,128.02 39.41,132.57 37.61,137.12 C36.39,140.21 35.16,143.3 34.19,146.48 C34.03,147 33.73,147.47 33.55,147.98 C32.61,150.72 31.67,153.45 30.78,156.2 C29.95,158.73 29.17,161.28 28.42,163.83 C27.7,166.29 27.01,168.75 26.35,171.22 C25.06,176.01 23.88,180.83 22.87,185.68 C22.61,186.97 22.35,188.26 22.1,189.55 C21.24,193.94 20.48,198.36 19.86,202.8 C19.28,207.02 18.8,211.25 18.42,215.49 C18.39,215.88 18.36,216.27 18.33,216.66 L18.33,217.74 L18.33,216.66 C18.15,218.98 18.01,221.31 17.92,223.65 C17.81,226.32 17.79,228.99 17.77,231.66 C17.77,232.93 17.9,234.21 17.89,235.49 C17.87,237.44 18.04,239.38 18.15,241.32 C18.19,242.03 18.22,242.75 18.29,243.47 C18.3,243.59 18.32,243.72 18.33,243.84 C18.56,245.71 18.71,247.59 18.97,249.45 C19.22,251.26 19.47,253.07 19.8,254.86 C20.28,257.36 20.73,259.86 21.5,262.29 C21.74,263.05 21.87,263.85 22.09,264.63 C22.55,266.33 23.1,268.01 23.7,269.66 C24.57,272.03 25.57,274.35 26.65,276.63 C28.32,280.13 30.39,283.39 32.82,286.41 C35.12,289.28 37.75,291.81 40.76,293.93 C40.88,294.02 41.01,294.1 41.14,294.18 C41.36,294.32 41.58,294.46 41.8,294.6 C41.92,294.68 42.05,294.76 42.18,294.84 C42.6,295.1 43.01,295.37 43.41,295.66 C43.41,295.66 43.42,295.66 43.43,295.67 C43.55,295.76 43.67,295.85 43.79,295.95 C43.79,295.97 43.81,295.99 43.82,296.01 C43.89,296.11 44.03,296.12 44.14,296.17 C49.34,298.47 54.53,300.77 59.73,303.07 C59.94,303.16 60.14,303.3 60.39,303.24 C60.36,303.19 60.34,303.15 60.31,303.1 C60.09,302.81 59.74,302.7 59.44,302.51 C57.85,301.5 56.34,300.37 54.93,299.14 C54.18,298.49 53.45,297.8 52.75,297.09 C50.07,294.37 47.81,291.35 45.89,288.12 C45.19,286.94 44.53,285.73 43.91,284.49 C43.54,283.75 43.18,283 42.84,282.24 C42.69,281.91 42.55,281.59 42.41,281.26 C42.27,280.93 42.13,280.61 41.99,280.28 C40.03,275.58 38.61,270.72 37.54,265.76 C37.22,264.29 36.94,262.81 36.68,261.32 C36.16,258.28 35.77,255.23 35.48,252.16 C35.19,249.1 35.02,246.02 34.92,242.94 C34.82,239.68 34.84,236.41 34.94,233.15 C34.95,232.93 34.95,232.71 34.96,232.49 C35.02,230.79 35.1,229.09 35.19,227.39 C35.29,225.7 35.41,224 35.55,222.31 C35.58,221.94 35.62,221.57 35.67,221.05 C35.67,221 35.68,220.95 35.68,220.9 C35.74,220.22 35.8,219.54 35.88,218.86 C36.19,215.82 36.58,212.79 37.01,209.77 C37.46,206.63 37.97,203.51 38.53,200.4 C38.6,200.02 38.68,199.65 38.75,199.27 C38.76,199.2 38.78,199.13 38.79,199.05 C38.83,198.86 38.86,198.67 38.9,198.48 C38.99,198 39.08,197.53 39.17,197.06 C39.56,195.07 39.97,193.08 40.41,191.1 C40.92,188.78 41.47,186.47 42.04,184.17 C42.67,181.61 43.33,179.06 44.03,176.52 C44.03,176.48 44.05,176.44 44.06,176.4 C44.51,174.78 44.98,173.16 45.46,171.55 C46.63,167.63 47.84,163.72 49.14,159.84 C49.85,157.74 50.59,155.65 51.34,153.57 C52.76,149.64 54.25,145.74 55.82,141.88 C58.77,134.59 61.97,127.4 65.44,120.32 C66.08,119.01 66.73,117.7 67.39,116.4 C68.95,113.32 70.57,110.26 72.23,107.23 C72.67,106.42 73.12,105.61 73.56,104.81 C73.6,104.75 73.64,104.68 73.67,104.62 C73.72,104.53 73.76,104.44 73.75,104.33 C73.81,104.23 73.88,104.13 73.93,104.04 C74.41,103.19 74.89,102.34 75.38,101.49 C76.36,99.8 77.34,98.12 78.35,96.44 C79.06,95.26 79.78,94.08 80.5,92.91 C81.31,91.59 82.13,90.28 82.97,88.98 C84.02,87.34 85.09,85.7 86.17,84.08 C87.31,82.37 88.47,80.69 89.65,79.01 C90.35,78 91.06,77 91.77,75.99 L91.77,75.93 C91.77,75.92 91.78,75.9 91.79,75.89 C91.81,75.86 91.85,75.85 91.89,75.85 C92.09,75.57 92.28,75.28 92.49,75 C100.37,64.18 108.98,53.98 118.67,44.72 C122.16,41.39 125.76,38.21 129.53,35.22 C131.03,34.02 132.56,32.86 134.12,31.72 L134.51,31.44 C135.16,30.97 135.82,30.51 136.48,30.05 C139.66,27.85 142.92,25.8 146.29,23.96 C146.93,23.61 147.58,23.27 148.23,22.94 C148.72,22.69 149.2,22.44 149.69,22.2 C150.11,21.99 150.53,21.79 150.95,21.59 C152.64,20.8 154.35,20.06 156.1,19.39 C161.66,17.25 167.38,15.79 173.35,15.47 C177.85,15.23 182.28,15.63 186.62,16.94 C186.81,17 187,17.09 187.2,17.01 C187.4,16.93 187.2,17 187.2,17.01 L187.21,17 Z M18.25,238 L18.25,238.28 L18.25,238 L18.25,238 Z" id="Shape" fill="#FDBF41"></path>
                    <path id="Shape" fill="#C18B00"></path>
                    <path id="Shape" fill="#C18B00"></path>
                    <path d="M169.46,9.01 C165.59,7.28 161.71,5.6 157.86,3.85 C153.45,1.84 148.87,0.6 144.02,0.37 C142.8,0.37 141.57,0.37 140.35,0.38 L138.92,0.38 C136.48,0.51 134.07,0.87 131.68,1.38 C124.63,2.88 118.07,5.64 111.78,9.1 C105.45,12.58 99.57,16.74 93.98,21.3 C93.27,21.88 92.5,22.41 91.88,23.11 C91.83,23.13 91.78,23.17 91.75,23.22 L91.75,23.28 L91.72,23.28 L91.69,23.28 C91.53,23.41 91.37,23.53 91.21,23.66 C85.02,28.96 79.27,34.71 73.83,40.78 C67.37,48 61.41,55.62 55.84,63.54 C47.54,75.34 40.19,87.72 33.64,100.57 C29.22,109.23 25.2,118.08 21.58,127.11 C17.81,136.53 14.35,146.07 11.57,155.84 C11.26,156.92 10.88,157.99 10.57,159.07 C8.29,167.12 6.32,175.24 4.77,183.46 C3.45,190.43 2.4,197.43 1.71,204.49 C1.2,209.61 0.85,214.74 0.87,219.89 C0.87,222.23 0.88,224.57 0.89,226.91 C0.92,227.23 0.93,227.55 0.94,227.87 C0.95,228.37 0.94,228.86 0.92,229.36 C0.94,232.21 1.18,235.04 1.45,237.88 C1.9,242.51 2.6,247.09 3.63,251.62 C4.91,257.3 6.66,262.81 9.15,268.08 C11.82,273.72 15.21,278.85 19.79,283.14 C22.46,285.64 25.4,287.75 28.71,289.3 C31.65,290.68 34.63,291.97 37.61,293.28 C39.65,294.18 41.67,295.15 43.75,295.95 C43.63,295.86 43.51,295.76 43.39,295.67 C43.39,295.67 43.38,295.67 43.37,295.66 C42.97,295.37 42.56,295.1 42.14,294.84 C42.01,294.76 41.89,294.68 41.76,294.6 C41.54,294.46 41.32,294.33 41.1,294.18 C40.97,294.1 40.85,294.01 40.72,293.93 C37.71,291.8 35.09,289.28 32.78,286.41 C30.35,283.39 28.28,280.13 26.61,276.63 C25.52,274.35 24.52,272.03 23.66,269.66 C23.43,269.45 23.21,269.23 22.99,269.01 C23.21,269.23 23.43,269.45 23.66,269.66 C23.06,268.01 22.51,266.33 22.05,264.63 C21.84,263.86 21.7,263.06 21.46,262.29 C20.69,259.86 20.23,257.36 19.76,254.86 C19.42,253.07 19.18,251.26 18.93,249.45 C18.67,247.59 18.51,245.71 18.29,243.84 C18.28,243.72 18.26,243.59 18.25,243.47 L18.25,250.64 L18.25,243.47 C18.18,242.76 18.15,242.04 18.11,241.32 C18.01,239.38 17.84,237.44 17.85,235.49 C17.85,234.22 17.72,232.94 17.73,231.66 C17.75,228.99 17.78,226.32 17.88,223.65 C17.97,221.32 18.11,218.99 18.29,216.66 C18.32,216.27 18.35,215.88 18.38,215.49 C18.76,211.25 19.24,207.02 19.82,202.8 C20.44,198.36 21.2,193.94 22.06,189.55 C22.31,188.26 22.57,186.97 22.83,185.68 C23.83,180.82 25.02,176.01 26.31,171.22 C26.97,168.75 27.66,166.28 28.38,163.83 C29.13,161.27 29.91,158.73 30.74,156.2 C31.64,153.45 32.58,150.71 33.51,147.98 C33.68,147.46 33.99,146.99 34.15,146.48 C35.13,143.3 36.35,140.21 37.57,137.12 C39.37,132.57 41.19,128.03 43.24,123.58 C45.13,119.48 46.95,115.34 49.02,111.32 C49.84,109.72 50.65,108.11 51.44,106.5 C51.72,105.93 52.12,105.43 52.38,104.85 C53.23,103.04 54.17,101.28 55.15,99.54 C55.62,98.71 55.99,97.81 56.61,97.07 C57.6,95.17 58.65,93.3 59.78,91.48 C60.44,90.43 61.02,89.32 61.67,88.26 C63.43,85.4 65.14,82.52 67.01,79.72 C69.08,76.61 71.08,73.46 73.26,70.43 C75.47,67.36 77.68,64.28 80.01,61.29 C80.77,60.31 81.63,59.42 82.36,58.41 C83.27,57.14 84.23,55.91 85.25,54.72 C86.62,53.11 87.97,51.48 89.36,49.9 C89.87,49.32 90.45,48.8 90.97,48.21 C91.87,47.19 92.71,46.12 93.65,45.13 C96.71,41.91 99.8,38.72 103.07,35.71 C103.73,35.1 104.33,34.41 105.05,33.89 C105.8,33.35 106.3,32.56 107.15,32.12 C107.2,32.09 107.26,32.06 107.3,32.02 C107.62,31.77 107.81,31.34 108.16,31.09 C108.19,31.07 108.22,31.05 108.24,31.03 C108.26,30.91 108.3,30.81 108.36,30.75 C108.42,30.68 108.49,30.64 108.59,30.63 C108.65,30.63 108.73,30.63 108.81,30.65 C108.92,30.56 109.03,30.46 109.14,30.37 C109.29,30.27 109.41,30.19 109.54,30.1 C110.2,29.62 110.79,29.07 111.4,28.51 C112.34,27.65 113.38,26.9 114.38,26.12 C118.41,22.99 122.66,20.18 127.04,17.57 C127.54,17.28 128.06,17.04 128.57,16.77 C130.1,15.95 131.6,15.08 133.15,14.32 C137.18,12.33 141.37,10.74 145.71,9.57 C147.95,8.97 150.21,8.5 152.51,8.18 C155.3,7.8 158.12,7.64 160.93,7.81 C164,8 167.03,8.48 169.96,9.44 C170.11,9.49 170.24,9.5 170.37,9.42 C170.12,9.15 169.74,9.15 169.43,9.01 L169.46,9.01 Z" id="Shape" fill="#FF1100"></path>
                    <path id="Shape" fill="#FF1100"></path>
                    <path id="Shape" fill="#FF1100"></path>
                    <path id="Shape" fill="#FEC35E"></path>
                    <path id="Shape" fill="#C18B00"></path>
                    <path d="M303.89,249.77 C304.39,249.38 304.39,249.34 303.89,248.95 C302.73,248.02 301.49,247.21 300.22,246.44 C295.98,243.87 291.45,241.91 286.81,240.21 C285.75,239.82 284.72,239.35 283.59,239.15 C283.28,238.8 282.82,238.77 282.42,238.64 C278.09,237.2 273.68,236.02 269.26,234.89 C268.89,234.86 268.53,234.78 268.21,234.6 C266.14,234.15 264.07,233.69 262.01,233.24 C258.18,232.41 254.33,231.69 250.47,231.04 C247.61,230.56 244.74,230.11 241.87,229.68 C239.63,229.35 237.39,229.01 235.13,228.85 C234.76,228.79 234.39,228.72 234.01,228.67 C226.1,227.7 218.18,226.97 210.23,226.42 C205.04,226.07 199.85,225.79 194.65,225.59 C187.86,225.33 181.06,225.21 174.26,225.21 C165.83,225.21 157.41,225.42 149,225.83 C139.28,226.3 129.58,227.04 119.91,228.12 C118.33,228.3 116.73,228.4 115.17,228.74 C114.85,228.65 114.54,228.74 114.22,228.77 C107.33,229.62 100.47,230.67 93.65,231.96 C89.62,232.72 85.61,233.56 81.63,234.51 L81.55,234.64 C81.55,234.64 80.52,249.46 82.8,263.93 C86.73,264.86 90.68,265.69 94.64,266.43 C98.18,267.09 101.73,267.72 105.3,268.23 C110.3,268.95 115.31,269.68 120.34,270.2 C125.23,270.71 130.11,271.24 135.01,271.6 C137.91,271.81 140.8,272.06 143.7,272.23 C147.99,272.48 152.29,272.69 156.58,272.84 C160.5,272.98 164.42,273.09 168.34,273.14 C174.61,273.22 180.89,273.19 187.16,273.06 C193.2,272.93 199.24,272.7 205.27,272.36 C212.46,271.96 219.64,271.39 226.81,270.65 C237.74,269.52 248.61,268 259.38,265.85 C268.79,263.97 278.09,261.67 287.11,258.35 C291.04,256.91 294.89,255.26 298.55,253.22 C300.41,252.19 302.21,251.07 303.89,249.76 L303.89,249.77 Z" id="Shape" fill="url(#linearGradient-1)" opacity="0.48"></path>
                </g>
            </g>
        </g>
    </g>
</svg>