<svg width="24" height="24" viewBox="0 0 24 24" fill="none" xmlns="http://www.w3.org/2000/svg">
<circle cx="12" cy="12" r="12" fill="black"/>
<path d="M6 19.0001C6 19.0001 6 18.9737 6 18.9662L6.32302 18.5891C6.49381 18.4043 6.66461 18.2119 6.83169 18.0271L7.15099 17.6764L7.66708 17.1069L7.83416 16.9259L8.37995 16.3225L8.72154 15.9454L9.20792 15.4023L9.36757 15.2288L9.87995 14.6669L10.4369 14.0559L10.8564 13.592L11.4245 12.966L11.9926 12.3626L12.5309 11.7705C12.5644 11.7328 12.5644 11.729 12.5309 11.6951C12.1597 11.2915 11.7512 10.8993 11.3651 10.4958C11.0421 10.1639 10.7116 9.83579 10.3923 9.50014C10.073 9.16449 9.85025 8.94198 9.57921 8.6629C9.52352 8.60633 9.52352 8.60256 9.59777 8.56862L11.4765 7.76909L13.5223 6.89792L15.1077 6.22285L16.7265 5.52138L17.9295 5.00848C17.9523 5.00043 17.9772 5.00043 18 5.00848C17.9839 5.04286 17.9611 5.07363 17.9332 5.09899C17.6584 5.44595 17.38 5.78914 17.1015 6.13234C16.875 6.41896 16.6448 6.70181 16.4146 6.98466L15.5458 8.06703L14.8032 9.00986C14.5099 9.387 14.2203 9.73019 13.9307 10.0885L13.2215 10.971L12.6163 11.7252C12.5792 11.7705 12.5792 11.7743 12.6163 11.8157L12.7723 11.9704C13.1881 12.4003 13.6077 12.8265 14.0198 13.2564C14.302 13.5506 14.5916 13.8372 14.8701 14.1313C15.1485 14.4255 15.3453 14.6216 15.5829 14.8667C15.6201 14.9082 15.6201 14.912 15.5829 14.9346L15.2599 15.0704L13.9233 15.6436L12.9171 16.0736L11.7772 16.5639L10.7859 16.9712L9.4901 17.5255L8.49134 17.9517L7.34777 18.442L6.33045 18.8719L6.05569 18.9888C6.04792 18.995 6.03884 18.9992 6.02917 19.0012C6.0195 19.0032 6.00951 19.0028 6 19.0001Z" fill="#28F4AF"/>
</svg>
