<svg width="32" height="32" viewBox="0 0 32 32" fill="none" xmlns="http://www.w3.org/2000/svg">
<circle cx="16" cy="16" r="16" fill="black"/>
<path d="M10.4283 22L12.4602 18.4938L14.492 15L16.5115 11.4938L16.846 10.9383L16.9947 11.4938L17.6142 13.8025L16.9204 15L14.8885 18.4938L12.869 22H15.2973L17.3292 18.4938L18.3823 16.679L18.8779 18.4938L19.8195 22H22L21.0584 18.4938L20.1168 15L19.869 14.0988L21.3805 11.4938H19.1752L19.1009 11.2346L18.3327 8.37037L18.2336 8H16.115L16.0655 8.07407L14.0832 11.4938L12.0513 15L10.0319 18.4938L8 22H10.4283Z" fill="white"/>
</svg>
