<svg width="32" height="33" viewBox="0 0 32 33" fill="none" xmlns="http://www.w3.org/2000/svg">
<path fill-rule="evenodd" clip-rule="evenodd" d="M32 16.0182C32 24.8648 24.8365 32.0365 16 32.0365C7.16352 32.0365 0 24.8648 0 16.0182C0 7.17167 7.16352 0 16 0C24.8365 0 32 7.17167 32 16.0182Z" fill="#00EF8B"/>
<path fill-rule="evenodd" clip-rule="evenodd" d="M18.5035 18.0346H23.0209V13.5117H18.5035V18.0346Z" fill="white"/>
<path fill-rule="evenodd" clip-rule="evenodd" d="M13.9853 19.7307C13.9853 20.6674 13.2269 21.4267 12.2915 21.4267C11.3558 21.4267 10.5971 20.6674 10.5971 19.7307C10.5971 18.7939 11.3558 18.0346 12.2915 18.0346H13.9853V13.5117H12.2915C8.8659 13.5117 6.07935 16.3015 6.07935 19.7307C6.07935 23.1599 8.8659 25.9496 12.2915 25.9496C15.7161 25.9496 18.5027 23.1599 18.5027 19.7307V18.0346H13.9853V19.7307Z" fill="white"/>
<path fill-rule="evenodd" clip-rule="evenodd" d="M20.197 11.2514H25.2795V6.72852H20.197C16.7717 6.72852 13.9852 9.51828 13.9852 12.9475V13.5125H18.5029V12.9475C18.5039 12.0113 19.2616 11.2524 20.197 11.2514Z" fill="white"/>
<path fill-rule="evenodd" clip-rule="evenodd" d="M13.9852 18.0346H18.5026H18.5029V13.5117H18.5026H13.9852V18.0346Z" fill="#16FF99"/>
</svg>
