<svg width="24" height="24" viewBox="0 0 24 24" fill="none" xmlns="http://www.w3.org/2000/svg">
<g clip-path="url(#clip0_2430_52108)">
<path d="M12 24C18.65 24 24 18.65 24 12C24 5.34996 18.65 0 12 0C5.34996 0 0 5.34996 0 12C0 18.65 5.34996 24 12 24Z" fill="#2775CA"/>
<path d="M15.3001 13.8999C15.3001 12.1499 14.2501 11.5499 12.1501 11.2999C10.6501 11.0999 10.3501 10.6999 10.3501 9.99985C10.3501 9.29977 10.8501 8.84989 11.8501 8.84989C12.7501 8.84989 13.2501 9.14989 13.5001 9.89989C13.5501 10.0499 13.7001 10.1499 13.8501 10.1499H14.65C14.8501 10.1499 15.0001 9.99985 15.0001 9.79993V9.74989C14.8 8.64985 13.9 7.79989 12.7501 7.69993V6.49993C12.7501 6.29989 12.6001 6.14989 12.3501 6.09985H11.6001C11.4001 6.09985 11.2501 6.24985 11.2 6.49993V7.64989C9.70002 7.84993 8.7501 8.84989 8.7501 10.0999C8.7501 11.7499 9.75006 12.3999 11.8501 12.6499C13.2501 12.8999 13.7001 13.1999 13.7001 13.9999C13.7001 14.8 13 15.3499 12.0501 15.3499C10.75 15.3499 10.3 14.7999 10.15 14.0499C10.1001 13.8499 9.9501 13.7499 9.8001 13.7499H8.95002C8.7501 13.7499 8.6001 13.8999 8.6001 14.0999V14.1499C8.80002 15.3999 9.60006 16.2999 11.2501 16.5499V17.7499C11.2501 17.9499 11.4001 18.0999 11.65 18.1499H12.4C12.6001 18.1499 12.7501 17.9999 12.8001 17.7499V16.5499C14.3001 16.2999 15.3001 15.2499 15.3001 13.8999Z" fill="white"/>
<path d="M9.45 19.1499C5.55 17.75 3.54996 13.4 5.00004 9.54992C5.75004 7.44992 7.40004 5.84996 9.45 5.09996C9.65004 5 9.75 4.85 9.75 4.59992V3.89996C9.75 3.69992 9.65004 3.54992 9.45 3.5C9.39996 3.5 9.3 3.5 9.24996 3.54992C4.5 5.04992 1.89996 10.1 3.39996 14.85C4.29996 17.6499 6.45 19.8 9.24996 20.7C9.45 20.7999 9.65004 20.7 9.69996 20.4999C9.75 20.45 9.75 20.4 9.75 20.3V19.5999C9.75 19.4499 9.6 19.25 9.45 19.1499ZM14.75 3.54992C14.55 3.44996 14.35 3.54992 14.3 3.74996C14.25 3.8 14.25 3.84992 14.25 3.95V4.64996C14.25 4.85 14.4 5.04992 14.55 5.15C18.45 6.54992 20.45 10.8999 19 14.75C18.25 16.85 16.6 18.45 14.55 19.2C14.35 19.2999 14.25 19.4499 14.25 19.7V20.4C14.25 20.6 14.35 20.75 14.55 20.7999C14.6 20.7999 14.7 20.7999 14.75 20.75C19.5 19.25 22.1 14.1999 20.6 9.44996C19.7 6.59996 17.5 4.44992 14.75 3.54992Z" fill="white"/>
</g>
<defs>
<clipPath id="clip0_2430_52108">
<rect width="24" height="24" fill="white"/>
</clipPath>
</defs>
</svg>
