<svg width="22" height="18" viewBox="0 0 22 18" fill="none" xmlns="http://www.w3.org/2000/svg">
<path fill-rule="evenodd" clip-rule="evenodd" d="M6.92 17.9405C10.3319 17.9619 13.6103 16.616 16.0229 14.2034C18.4356 11.7908 19.7815 8.51237 19.76 5.10046V4.51046C20.6356 3.86895 21.3935 3.08063 22 2.18046C21.1755 2.54106 20.3031 2.78021 19.41 2.89046C20.3569 2.32624 21.0674 1.43813 21.41 0.39046C20.5275 0.919901 19.5598 1.2921 18.55 1.49046C17.1518 0.000684857 14.9282 -0.365954 13.1257 0.596114C11.3233 1.55818 10.3904 3.60972 10.85 5.60046C7.2218 5.42237 3.84048 3.7099 1.55 0.89046C0.364961 2.94724 0.977064 5.57054 2.95 6.89046C2.24861 6.86341 1.56345 6.67156 0.95 6.33046V6.38046C0.937157 8.51491 2.41605 10.3687 4.5 10.8305C3.84764 11.0059 3.16429 11.0333 2.5 10.9105C3.09994 12.7206 4.77352 13.9578 6.68 14.0005C5.08921 15.281 3.11209 15.9858 1.07 16.0005C0.711953 15.9901 0.354747 15.9601 0 15.9105C2.06696 17.2274 4.4692 17.9216 6.92 17.9105" fill="#252525"/>
</svg>
