<svg width="32" height="32" viewBox="0 0 32 32" fill="none" xmlns="http://www.w3.org/2000/svg">
<circle cx="16" cy="16" r="15.5" stroke="#F8B0B4"/>
<path d="M11.6232 23V8.45455H16.3178C17.35 8.45455 18.2118 8.64157 18.9031 9.01562C19.5991 9.38494 20.1223 9.89867 20.4727 10.5568C20.8278 11.2102 21.0053 11.9607 21.0053 12.8082C21.0053 13.6558 20.8278 14.4039 20.4727 15.0526C20.1223 15.7012 19.6014 16.2079 18.9102 16.5724C18.2189 16.937 17.3619 17.1193 16.3391 17.1193H12.3406V15.9048H16.3036C17.0612 15.9048 17.6909 15.7794 18.1928 15.5284C18.6995 15.2775 19.0759 14.92 19.3221 14.456C19.573 13.992 19.6985 13.4427 19.6985 12.8082C19.6985 12.1738 19.573 11.6198 19.3221 11.1463C19.0711 10.6681 18.6924 10.2988 18.1857 10.0384C17.6838 9.77793 17.0494 9.64773 16.2823 9.64773H12.9513V23H11.6232ZM18.0366 16.4375L21.6161 23H20.082L16.538 16.4375H18.0366Z" fill="#C2434B"/>
</svg>