<svg width="32" height="32" viewBox="0 0 32 32" fill="none" xmlns="http://www.w3.org/2000/svg">
<circle cx="16" cy="16" r="15.5" stroke="#FFC382"/>
<path d="M22.068 13H20.7328C20.6333 12.5028 20.4534 12.0436 20.193 11.6222C19.9373 11.196 19.6154 10.8243 19.2271 10.5071C18.8388 10.1899 18.3985 9.94366 17.9061 9.76847C17.4136 9.59328 16.881 9.50568 16.3081 9.50568C15.3895 9.50568 14.5514 9.74479 13.7939 10.223C13.041 10.7012 12.4373 11.4044 11.9828 12.3324C11.533 13.2557 11.3081 14.3873 11.3081 15.7273C11.3081 17.0767 11.533 18.2131 11.9828 19.1364C12.4373 20.0597 13.041 20.7604 13.7939 21.2386C14.5514 21.7121 15.3895 21.9489 16.3081 21.9489C16.881 21.9489 17.4136 21.8613 17.9061 21.6861C18.3985 21.5109 18.8388 21.267 19.2271 20.9545C19.6154 20.6373 19.9373 20.2656 20.193 19.8395C20.4534 19.4134 20.6333 18.9517 20.7328 18.4545H22.068C21.9496 19.1222 21.7271 19.7448 21.4004 20.3224C21.0784 20.8954 20.6665 21.3973 20.1646 21.8281C19.6674 22.259 19.0945 22.5952 18.4458 22.8366C17.7972 23.0781 17.0846 23.1989 16.3081 23.1989C15.0865 23.1989 14.0022 22.8935 13.0552 22.2827C12.1083 21.6671 11.3649 20.8007 10.8251 19.6832C10.2901 18.5658 10.0225 17.2472 10.0225 15.7273C10.0225 14.2074 10.2901 12.8887 10.8251 11.7713C11.3649 10.6539 12.1083 9.78977 13.0552 9.17898C14.0022 8.56345 15.0865 8.25568 16.3081 8.25568C17.0846 8.25568 17.7972 8.37642 18.4458 8.6179C19.0945 8.85464 19.6674 9.19081 20.1646 9.62642C20.6665 10.0573 21.0784 10.5592 21.4004 11.1321C21.7271 11.705 21.9496 12.3277 22.068 13Z" fill="#D87407"/>
</svg>
