<svg width="32" height="32" viewBox="0 0 32 32" fill="none" xmlns="http://www.w3.org/2000/svg">
<circle cx="16" cy="16" r="15.5" fill="white" stroke="#A8C0FF"/>
<path d="M19.5405 12.0909C19.46 11.2812 19.1025 10.6373 18.468 10.1591C17.8336 9.68087 17.0357 9.44176 16.0746 9.44176C15.3975 9.44176 14.8009 9.55777 14.2848 9.78977C13.7734 10.0218 13.371 10.3437 13.0774 10.7557C12.7886 11.1629 12.6442 11.6269 12.6442 12.1477C12.6442 12.5312 12.727 12.8674 12.8928 13.1562C13.0585 13.4451 13.281 13.6937 13.5604 13.902C13.8445 14.1056 14.157 14.2808 14.4979 14.4276C14.8435 14.5743 15.1915 14.6974 15.5419 14.7969L17.076 15.2372C17.54 15.3651 18.004 15.5284 18.468 15.7273C18.9321 15.9261 19.3558 16.1771 19.7393 16.4801C20.1276 16.7784 20.4377 17.1454 20.6697 17.581C20.9065 18.0118 21.0249 18.5303 21.0249 19.1364C21.0249 19.9129 20.8236 20.6113 20.4212 21.2315C20.0187 21.8518 19.4411 22.3442 18.6882 22.7088C17.9354 23.0687 17.0334 23.2486 15.9822 23.2486C14.9927 23.2486 14.1333 23.0852 13.4041 22.7585C12.675 22.4271 12.102 21.9702 11.6854 21.3878C11.2687 20.8054 11.0343 20.1307 10.9822 19.3636H12.3459C12.3932 19.9366 12.5826 20.4219 12.9141 20.8196C13.2455 21.2173 13.6764 21.5204 14.2067 21.7287C14.737 21.9323 15.3288 22.0341 15.9822 22.0341C16.7067 22.0341 17.3506 21.9134 17.9141 21.6719C18.4822 21.4257 18.9273 21.0848 19.2493 20.6491C19.576 20.2088 19.7393 19.6974 19.7393 19.1151C19.7393 18.6226 19.6115 18.2107 19.3558 17.8793C19.1001 17.5431 18.7427 17.2614 18.2834 17.0341C17.8288 16.8068 17.3009 16.6056 16.6996 16.4304L14.9595 15.919C13.8184 15.5781 12.933 15.107 12.3033 14.5057C11.6735 13.9044 11.3587 13.1373 11.3587 12.2045C11.3587 11.4233 11.567 10.7367 11.9837 10.1449C12.4051 9.5483 12.9732 9.08428 13.6882 8.75284C14.4079 8.41667 15.2152 8.24858 16.1101 8.24858C17.0144 8.24858 17.8146 8.4143 18.5107 8.74574C19.2067 9.07718 19.7583 9.53409 20.1655 10.1165C20.5774 10.6941 20.7976 11.3523 20.826 12.0909H19.5405Z" fill="#0846E4"/>
</svg>
