<svg width="26" height="26" viewBox="0 0 26 26" fill="none" xmlns="http://www.w3.org/2000/svg">
<circle cx="13" cy="13" r="12" fill="black"/>
<g clip-path="url(#clip0_601_27550)">
<path d="M11 17.6667C7.66671 18.6667 7.66671 16 6.33337 15.6667M15.6667 19.6667V17.0867C15.6917 16.7688 15.6488 16.4492 15.5407 16.1492C15.4327 15.8492 15.262 15.5756 15.04 15.3467C17.1334 15.1133 19.3334 14.32 19.3334 10.68C19.3332 9.74922 18.9752 8.85413 18.3334 8.18C18.6373 7.36567 18.6158 6.46557 18.2734 5.66667C18.2734 5.66667 17.4867 5.43333 15.6667 6.65333C14.1387 6.23921 12.528 6.23921 11 6.65333C9.18004 5.43333 8.39337 5.66667 8.39337 5.66667C8.05096 6.46557 8.02947 7.36567 8.33337 8.18C7.68679 8.85913 7.32839 9.76231 7.33337 10.7C7.33337 14.3133 9.53337 15.1067 11.6267 15.3667C11.4074 15.5933 11.2382 15.8636 11.1302 16.1599C11.0223 16.4563 10.9779 16.772 11 17.0867V19.6667" stroke="white" stroke-width="1.33333" stroke-linecap="round" stroke-linejoin="round"/>
</g>
<defs>
<clipPath id="clip0_601_27550">
<rect width="16" height="16" fill="white" transform="translate(5 5)"/>
</clipPath>
</defs>
</svg>
