<svg width="24" height="24" viewBox="0 0 24 24" fill="none" xmlns="http://www.w3.org/2000/svg">
<path fill-rule="evenodd" clip-rule="evenodd" d="M11.9785 7.44638e-05C6.10442 0.00088634 1.09753 4.37595 0.155977 10.3307C-0.785579 16.2854 2.61601 22.0628 8.18799 23.9726C8.78694 24.0868 9.04363 23.7089 9.04363 23.3838V21.2924C5.71518 22.0305 5.01355 19.6403 5.01355 19.6403C4.77949 18.8871 4.28687 18.2468 3.62741 17.8388C2.54074 17.0831 3.71297 17.0919 3.71297 17.0919C4.48215 17.2035 5.15799 17.6738 5.54405 18.3661C6.2342 19.6374 7.79693 20.0937 9.03508 19.3855C9.08339 18.762 9.35104 18.1778 9.78804 17.7422C7.13555 17.4258 4.33759 16.3713 4.33759 11.6612C4.31819 10.4379 4.75962 9.25412 5.56972 8.35706C5.20304 7.29745 5.24591 6.13378 5.68951 5.10565C5.68951 5.10565 6.69061 4.77173 8.98374 6.36228C10.9444 5.81301 13.0126 5.81301 14.9732 6.36228C17.2578 4.77173 18.2589 5.10565 18.2589 5.10565C18.7025 6.13378 18.7454 7.29745 18.3787 8.35706C19.1888 9.25412 19.6302 10.4379 19.6108 11.6612C19.6108 16.3889 16.8129 17.4258 14.1433 17.7334C14.7219 18.3357 15.0183 19.1657 14.9561 20.0094V23.3838C14.9561 23.788 15.17 24.0956 15.8118 23.9726C21.3915 22.0603 24.7938 16.2702 23.8406 10.3089C22.8873 4.34764 17.8607 -0.0207959 11.9785 7.44638e-05Z" fill="#252525"/>
</svg>
