<svg width="26" height="26" viewBox="0 0 26 26" fill="none" xmlns="http://www.w3.org/2000/svg">
<circle cx="13" cy="13" r="12" fill="black"/>
<path d="M20.3334 6.99999C19.6949 7.45031 18.9881 7.79473 18.24 8.01999C17.8385 7.55833 17.3049 7.23112 16.7114 7.08261C16.1178 6.9341 15.493 6.97145 14.9214 7.18963C14.3498 7.4078 13.859 7.79626 13.5153 8.30247C13.1717 8.80868 12.9918 9.40821 13 10.02V10.6867C11.8284 10.717 10.6675 10.4572 9.62069 9.93029C8.57385 9.40338 7.67357 8.62575 7.00002 7.66666C7.00002 7.66666 4.33335 13.6667 10.3334 16.3333C8.96037 17.2653 7.32479 17.7326 5.66669 17.6667C11.6667 21 19 17.6667 19 9.99999C18.9994 9.81429 18.9816 9.62905 18.9467 9.44666C19.6271 8.77565 20.1072 7.92847 20.3334 6.99999V6.99999Z" stroke="white" stroke-width="1.33333" stroke-linecap="round" stroke-linejoin="round"/>
</svg>
