<svg width="32" height="32" viewBox="0 0 32 32" fill="none" xmlns="http://www.w3.org/2000/svg">
<circle cx="16" cy="16" r="16" fill="#7950DD"/>
<path d="M20.4792 12.8879C20.1497 12.685 19.7212 12.685 19.3587 12.8879L16.7881 14.4439L15.0414 15.4587L12.4708 17.0148C12.1412 17.2177 11.7128 17.2177 11.3503 17.0148L9.30696 15.797C8.9774 15.5941 8.7467 15.222 8.7467 14.816V12.4144C8.7467 12.0085 8.94444 11.6364 9.30696 11.4334L11.3173 10.2495C11.6469 10.0465 12.0753 10.0465 12.4378 10.2495L14.4482 11.4334C14.7777 11.6364 15.0084 12.0085 15.0084 12.4144V13.9704L16.7551 12.9218V11.3657C16.7551 10.9598 16.5574 10.5877 16.1949 10.3848L12.4708 8.15222C12.1412 7.94926 11.7128 7.94926 11.3503 8.15222L7.56026 10.3848C7.19774 10.5877 7 10.9598 7 11.3657V15.8647C7 16.2706 7.19774 16.6427 7.56026 16.8456L11.3503 19.0782C11.6798 19.2812 12.1083 19.2812 12.4708 19.0782L15.0414 17.556L16.7881 16.5074L19.3587 14.9852C19.6883 14.7822 20.1167 14.7822 20.4792 14.9852L22.4896 16.1691C22.8192 16.3721 23.0499 16.7442 23.0499 17.1501V19.5518C23.0499 19.9577 22.8521 20.3298 22.4896 20.5327L20.4792 21.7505C20.1497 21.9535 19.7212 21.9535 19.3587 21.7505L17.3484 20.5666C17.0188 20.3636 16.7881 19.9915 16.7881 19.5856V18.0296L15.0414 19.0782V20.6342C15.0414 21.0401 15.2391 21.4122 15.6017 21.6152L19.3917 23.8478C19.7212 24.0507 20.1497 24.0507 20.5122 23.8478L24.3022 21.6152C24.6318 21.4122 24.8625 21.0401 24.8625 20.6342V16.1353C24.8625 15.7294 24.6647 15.3573 24.3022 15.1543L20.4792 12.8879Z" fill="white"/>
</svg>
