<svg width="28" height="21" viewBox="0 0 28 21" fill="none" xmlns="http://www.w3.org/2000/svg">
<path d="M23.256 2.02611C21.504 1.22399 19.6544 0.654942 17.7545 0.333496C17.4945 0.79826 17.2593 1.27644 17.0497 1.76603C15.026 1.46107 12.9679 1.46107 10.9442 1.76603C10.7345 1.27649 10.4993 0.798316 10.2394 0.333496C8.33829 0.657657 6.48748 1.22806 4.73369 2.03031C1.25197 7.18158 0.30813 12.2049 0.78005 17.1569C2.81903 18.6634 5.10123 19.8091 7.52745 20.5442C8.07377 19.8095 8.55718 19.03 8.97258 18.214C8.1836 17.9193 7.42209 17.5558 6.69688 17.1275C6.88774 16.9891 7.07441 16.8465 7.25479 16.7081C9.365 17.7004 11.6682 18.215 14.0001 18.215C16.332 18.215 18.6352 17.7004 20.7454 16.7081C20.9279 16.857 21.1145 16.9996 21.3033 17.1275C20.5767 17.5565 19.8138 17.9207 19.0234 18.2161C19.4383 19.0317 19.9218 19.8105 20.4685 20.5442C22.8968 19.8121 25.1808 18.6669 27.2201 17.159C27.7739 11.4163 26.2742 6.43909 23.256 2.02611ZM9.57034 14.1115C8.25526 14.1115 7.1688 12.918 7.1688 11.4498C7.1688 9.98163 8.21751 8.77771 9.56615 8.77771C10.9148 8.77771 11.9929 9.98163 11.9698 11.4498C11.9467 12.918 10.9106 14.1115 9.57034 14.1115ZM18.4298 14.1115C17.1127 14.1115 16.0304 12.918 16.0304 11.4498C16.0304 9.98163 17.0791 8.77771 18.4298 8.77771C19.7806 8.77771 20.8503 9.98163 20.8272 11.4498C20.8041 12.918 19.7701 14.1115 18.4298 14.1115Z" fill="#252525"/>
</svg>
